solid ascii
  facet normal -1.000000e+00 -0.000000e+00 -0.000000e+00
    outer loop
      vertex   -3.709725e+01 1.526129e+02 3.700000e+01
      vertex   -3.709725e+01 1.526129e+02 2.000000e+00
      vertex   -3.709725e+01 1.511129e+02 3.700000e+01
    endloop
  endfacet
  facet normal -1.000000e+00 -0.000000e+00 -0.000000e+00
    outer loop
      vertex   -3.709725e+01 1.511129e+02 3.700000e+01
      vertex   -3.709725e+01 1.526129e+02 2.000000e+00
      vertex   -3.709725e+01 1.511129e+02 2.000000e+00
    endloop
  endfacet
  facet normal 0.000000e+00 1.000000e+00 0.000000e+00
    outer loop
      vertex   -3.709725e+01 1.511129e+02 3.700000e+01
      vertex   -3.709725e+01 1.511129e+02 2.000000e+00
      vertex   -3.759766e+01 1.511129e+02 3.700000e+01
    endloop
  endfacet
  facet normal 0.000000e+00 1.000000e+00 0.000000e+00
    outer loop
      vertex   -3.759766e+01 1.511129e+02 3.700000e+01
      vertex   -3.709725e+01 1.511129e+02 2.000000e+00
      vertex   -3.759766e+01 1.511129e+02 2.000000e+00
    endloop
  endfacet
  facet normal 0.000000e+00 -0.000000e+00 1.000000e+00
    outer loop
      vertex   -3.709725e+01 1.511129e+02 2.000000e+00
      vertex   -3.709725e+01 1.526129e+02 2.000000e+00
      vertex   -3.759766e+01 1.511129e+02 2.000000e+00
    endloop
  endfacet
  facet normal 0.000000e+00 -0.000000e+00 1.000000e+00
    outer loop
      vertex   -3.759766e+01 1.511129e+02 2.000000e+00
      vertex   -3.709725e+01 1.526129e+02 2.000000e+00
      vertex   -4.671625e+01 1.526129e+02 2.000000e+00
    endloop
  endfacet
  facet normal -6.425610e-08 8.986974e-09 1.000000e+00
    outer loop
      vertex   -4.759741e+01 1.496288e+02 2.000000e+00
      vertex   -4.671625e+01 1.526129e+02 2.000000e+00
      vertex   -4.945263e+01 1.496288e+02 2.000000e+00
    endloop
  endfacet
  facet normal -1.566770e-09 -9.524489e-09 1.000000e+00
    outer loop
      vertex   -4.759741e+01 1.496288e+02 2.000000e+00
      vertex   -3.759766e+01 1.511129e+02 2.000000e+00
      vertex   -4.671625e+01 1.526129e+02 2.000000e+00
    endloop
  endfacet
  facet normal -2.980299e-09 0.000000e+00 1.000000e+00
    outer loop
      vertex   -4.759741e+01 1.496288e+02 2.000000e+00
      vertex   -4.759741e+01 1.471129e+02 2.000000e+00
      vertex   -3.759766e+01 1.511129e+02 2.000000e+00
    endloop
  endfacet
  facet normal -2.640236e-09 -8.501340e-10 1.000000e+00
    outer loop
      vertex   -3.759766e+01 1.511129e+02 2.000000e+00
      vertex   -4.759741e+01 1.471129e+02 2.000000e+00
      vertex   -3.809766e+01 1.176098e+02 2.000000e+00
    endloop
  endfacet
  facet normal 4.385892e-08 8.954599e-08 1.000000e+00
    outer loop
      vertex   -3.759766e+01 1.173649e+02 2.000000e+00
      vertex   -3.809766e+01 1.176098e+02 2.000000e+00
      vertex   -3.809766e+01 1.156129e+02 2.000000e+00
    endloop
  endfacet
  facet normal -4.372994e-10 -5.595470e-09 1.000000e+00
    outer loop
      vertex   -3.759766e+01 8.361686e+01 2.000000e+00
      vertex   -3.809766e+01 1.156129e+02 2.000000e+00
      vertex   -6.309766e+01 8.560976e+01 2.000000e+00
    endloop
  endfacet
  facet normal 0.000000e+00 -3.921908e-14 1.000000e+00
    outer loop
      vertex   -6.509056e+01 8.361686e+01 2.000000e+00
      vertex   -3.759766e+01 8.361686e+01 2.000000e+00
      vertex   -6.309766e+01 8.560976e+01 2.000000e+00
    endloop
  endfacet
  facet normal 0.000000e+00 -4.993590e-08 1.000000e+00
    outer loop
      vertex   -4.945263e+01 1.496288e+02 2.000000e+00
      vertex   -4.671625e+01 1.526129e+02 2.000000e+00
      vertex   -5.259763e+01 1.496288e+02 2.000000e+00
    endloop
  endfacet
  facet normal 4.673937e-09 -5.914792e-08 1.000000e+00
    outer loop
      vertex   -5.259763e+01 1.496288e+02 2.000000e+00
      vertex   -4.671625e+01 1.526129e+02 2.000000e+00
      vertex   -7.859766e+01 1.526129e+02 2.000000e+00
    endloop
  endfacet
  facet normal 6.311240e-09 -4.488213e-08 1.000000e+00
    outer loop
      vertex   -7.859766e+01 1.486288e+02 2.000000e+00
      vertex   -5.259763e+01 1.496288e+02 2.000000e+00
      vertex   -7.859766e+01 1.526129e+02 2.000000e+00
    endloop
  endfacet
  facet normal 4.584971e-09 -0.000000e+00 1.000000e+00
    outer loop
      vertex   -7.859766e+01 1.486288e+02 2.000000e+00
      vertex   -5.259763e+01 1.486288e+02 2.000000e+00
      vertex   -5.259763e+01 1.496288e+02 2.000000e+00
    endloop
  endfacet
  facet normal -2.220418e-17 -2.537653e-17 1.000000e+00
    outer loop
      vertex   -6.759766e+01 1.471129e+02 2.000000e+00
      vertex   -6.759766e+01 1.296129e+02 2.000000e+00
      vertex   -4.759741e+01 1.471129e+02 2.000000e+00
    endloop
  endfacet
  facet normal -2.437140e-17 -2.289967e-17 1.000000e+00
    outer loop
      vertex   -4.759741e+01 1.471129e+02 2.000000e+00
      vertex   -6.759766e+01 1.296129e+02 2.000000e+00
      vertex   -3.809766e+01 1.176098e+02 2.000000e+00
    endloop
  endfacet
  facet normal -1.776357e-17 -6.659618e-18 1.000000e+00
    outer loop
      vertex   -3.809766e+01 1.176098e+02 2.000000e+00
      vertex   -6.759766e+01 1.296129e+02 2.000000e+00
      vertex   -6.309766e+01 1.176098e+02 2.000000e+00
    endloop
  endfacet
  facet normal 6.061889e-17 2.272621e-17 1.000000e+00
    outer loop
      vertex   -6.309766e+01 1.176098e+02 2.000000e+00
      vertex   -6.759766e+01 1.296129e+02 2.000000e+00
      vertex   -7.042358e+01 1.176098e+02 2.000000e+00
    endloop
  endfacet
  facet normal 0.000000e+00 3.699786e-17 1.000000e+00
    outer loop
      vertex   -7.042358e+01 1.176098e+02 2.000000e+00
      vertex   -6.759766e+01 1.296129e+02 2.000000e+00
      vertex   -6.959766e+01 1.296129e+02 2.000000e+00
    endloop
  endfacet
  facet normal 0.000000e+00 7.399574e-17 1.000000e+00
    outer loop
      vertex   -7.392358e+01 1.176098e+02 2.000000e+00
      vertex   -6.959766e+01 1.296129e+02 2.000000e+00
      vertex   -7.859766e+01 1.176098e+02 2.000000e+00
    endloop
  endfacet
  facet normal 1.268827e-16 2.826721e-17 1.000000e+00
    outer loop
      vertex   -7.392358e+01 1.176098e+02 2.000000e+00
      vertex   -7.042358e+01 1.176098e+02 2.000000e+00
      vertex   -6.959766e+01 1.296129e+02 2.000000e+00
    endloop
  endfacet
  facet normal -1.662952e-12 -1.525882e-06 1.000000e+00
    outer loop
      vertex   -7.392358e+01 1.176098e+02 2.000000e+00
      vertex   -7.167358e+01 1.163598e+02 1.999998e+00
      vertex   -7.042358e+01 1.176098e+02 2.000000e+00
    endloop
  endfacet
  facet normal 0.000000e+00 -1.525879e-06 1.000000e+00
    outer loop
      vertex   -7.392358e+01 1.176098e+02 2.000000e+00
      vertex   -7.267358e+01 1.163598e+02 1.999998e+00
      vertex   -7.167358e+01 1.163598e+02 1.999998e+00
    endloop
  endfacet
  facet normal 0.000000e+00 0.000000e+00 1.000000e+00
    outer loop
      vertex   -7.167358e+01 1.163598e+02 1.999998e+00
      vertex   -7.267358e+01 1.163598e+02 1.999998e+00
      vertex   -7.192358e+01 1.158598e+02 1.999998e+00
    endloop
  endfacet
  facet normal 0.000000e+00 0.000000e+00 1.000000e+00
    outer loop
      vertex   -6.689934e+01 1.158598e+02 1.999998e+00
      vertex   -7.167358e+01 1.163598e+02 1.999998e+00
      vertex   -7.192358e+01 1.158598e+02 1.999998e+00
    endloop
  endfacet
  facet normal 0.000000e+00 -0.000000e+00 1.000000e+00
    outer loop
      vertex   -6.689934e+01 1.158598e+02 1.999998e+00
      vertex   -6.689934e+01 1.163598e+02 1.999998e+00
      vertex   -7.167358e+01 1.163598e+02 1.999998e+00
    endloop
  endfacet
  facet normal -1.973730e-16 -1.182698e-16 1.000000e+00
    outer loop
      vertex   -6.959766e+01 1.446324e+02 2.000000e+00
      vertex   -7.859766e+01 1.446324e+02 2.000000e+00
      vertex   -6.959766e+01 1.296129e+02 2.000000e+00
    endloop
  endfacet
  facet normal 5.485125e-17 3.286794e-17 1.000000e+00
    outer loop
      vertex   -6.959766e+01 1.296129e+02 2.000000e+00
      vertex   -7.859766e+01 1.446324e+02 2.000000e+00
      vertex   -7.859766e+01 1.176098e+02 2.000000e+00
    endloop
  endfacet
  facet normal -0.000000e+00 0.000000e+00 1.000000e+00
    outer loop
      vertex   -7.689934e+01 1.163598e+02 1.999998e+00
      vertex   -7.689934e+01 1.158598e+02 1.999998e+00
      vertex   -7.267358e+01 1.163598e+02 1.999998e+00
    endloop
  endfacet
  facet normal -0.000000e+00 0.000000e+00 1.000000e+00
    outer loop
      vertex   -7.267358e+01 1.163598e+02 1.999998e+00
      vertex   -7.689934e+01 1.158598e+02 1.999998e+00
      vertex   -7.242358e+01 1.158598e+02 1.999998e+00
    endloop
  endfacet
  facet normal 0.000000e+00 1.525879e-06 1.000000e+00
    outer loop
      vertex   -7.192358e+01 1.158598e+02 1.999998e+00
      vertex   -7.242358e+01 1.158598e+02 1.999998e+00
      vertex   -7.192358e+01 1.146098e+02 2.000000e+00
    endloop
  endfacet
  facet normal 0.000000e+00 0.000000e+00 1.000000e+00
    outer loop
      vertex   -7.192358e+01 1.158598e+02 1.999998e+00
      vertex   -7.267358e+01 1.163598e+02 1.999998e+00
      vertex   -7.242358e+01 1.158598e+02 1.999998e+00
    endloop
  endfacet
  facet normal -0.000000e+00 1.525879e-06 1.000000e+00
    outer loop
      vertex   -7.242358e+01 1.158598e+02 1.999998e+00
      vertex   -7.242358e+01 1.146098e+02 2.000000e+00
      vertex   -7.192358e+01 1.146098e+02 2.000000e+00
    endloop
  endfacet
  facet normal 0.000000e+00 0.000000e+00 1.000000e+00
    outer loop
      vertex   -7.192358e+01 1.146098e+02 2.000000e+00
      vertex   -7.242358e+01 1.146098e+02 2.000000e+00
      vertex   -7.192358e+01 1.046098e+02 2.000000e+00
    endloop
  endfacet
  facet normal 0.000000e+00 0.000000e+00 1.000000e+00
    outer loop
      vertex   -6.559767e+01 1.046098e+02 2.000000e+00
      vertex   -7.192358e+01 1.146098e+02 2.000000e+00
      vertex   -7.192358e+01 1.046098e+02 2.000000e+00
    endloop
  endfacet
  facet normal 0.000000e+00 -0.000000e+00 1.000000e+00
    outer loop
      vertex   -6.559767e+01 1.046098e+02 2.000000e+00
      vertex   -6.559767e+01 1.146098e+02 2.000000e+00
      vertex   -7.192358e+01 1.146098e+02 2.000000e+00
    endloop
  endfacet
  facet normal -8.881784e-16 -4.440892e-17 1.000000e+00
    outer loop
      vertex   -7.192358e+01 1.046098e+02 2.000000e+00
      vertex   -7.242358e+01 1.146098e+02 2.000000e+00
      vertex   -7.242358e+01 1.046098e+02 2.000000e+00
    endloop
  endfacet
  facet normal -8.881784e-16 0.000000e+00 1.000000e+00
    outer loop
      vertex   -7.192358e+01 1.026098e+02 2.000000e+00
      vertex   -7.242358e+01 1.046098e+02 2.000000e+00
      vertex   -7.242358e+01 1.026098e+02 2.000000e+00
    endloop
  endfacet
  facet normal -4.440892e-16 -5.978124e-17 1.000000e+00
    outer loop
      vertex   -6.967358e+01 8.960976e+01 2.000000e+00
      vertex   -7.242358e+01 1.026098e+02 2.000000e+00
      vertex   -7.467358e+01 8.960976e+01 2.000000e+00
    endloop
  endfacet
  facet normal 0.000000e+00 -1.289384e-14 1.000000e+00
    outer loop
      vertex   -6.967358e+01 8.361686e+01 2.000000e+00
      vertex   -7.467358e+01 8.960976e+01 2.000000e+00
      vertex   -7.467358e+01 8.361686e+01 2.000000e+00
    endloop
  endfacet
  facet normal -4.440892e-16 -1.326436e-14 1.000000e+00
    outer loop
      vertex   -6.967358e+01 8.361686e+01 2.000000e+00
      vertex   -6.967358e+01 8.960976e+01 2.000000e+00
      vertex   -7.467358e+01 8.960976e+01 2.000000e+00
    endloop
  endfacet
  facet normal -1.438560e-16 8.881784e-17 1.000000e+00
    outer loop
      vertex   -7.859766e+01 1.046098e+02 2.000000e+00
      vertex   -7.242358e+01 1.046098e+02 2.000000e+00
      vertex   -7.859766e+01 1.146098e+02 2.000000e+00
    endloop
  endfacet
  facet normal -3.596400e-16 -4.440892e-17 1.000000e+00
    outer loop
      vertex   -7.859766e+01 1.146098e+02 2.000000e+00
      vertex   -7.242358e+01 1.046098e+02 2.000000e+00
      vertex   -7.242358e+01 1.146098e+02 2.000000e+00
    endloop
  endfacet
  facet normal -8.881784e-16 0.000000e+00 1.000000e+00
    outer loop
      vertex   -7.192358e+01 1.046098e+02 2.000000e+00
      vertex   -7.242358e+01 1.046098e+02 2.000000e+00
      vertex   -7.192358e+01 1.026098e+02 2.000000e+00
    endloop
  endfacet
  facet normal 7.192800e-17 -1.490919e-16 1.000000e+00
    outer loop
      vertex   -7.242358e+01 1.026098e+02 2.000000e+00
      vertex   -7.859766e+01 1.026098e+02 2.000000e+00
      vertex   -7.467358e+01 8.960976e+01 2.000000e+00
    endloop
  endfacet
  facet normal 5.658514e-16 0.000000e+00 1.000000e+00
    outer loop
      vertex   -7.467358e+01 8.960976e+01 2.000000e+00
      vertex   -7.859766e+01 1.026098e+02 2.000000e+00
      vertex   -7.859766e+01 8.960976e+01 2.000000e+00
    endloop
  endfacet
  facet normal 0.000000e+00 -0.000000e+00 1.000000e+00
    outer loop
      vertex   -6.559766e+01 8.960976e+01 2.000000e+00
      vertex   -6.559766e+01 1.026098e+02 2.000000e+00
      vertex   -6.967358e+01 8.960976e+01 2.000000e+00
    endloop
  endfacet
  facet normal 0.000000e+00 -0.000000e+00 1.000000e+00
    outer loop
      vertex   -6.967358e+01 8.960976e+01 2.000000e+00
      vertex   -6.559766e+01 1.026098e+02 2.000000e+00
      vertex   -7.192358e+01 1.026098e+02 2.000000e+00
    endloop
  endfacet
  facet normal -8.881784e-16 -1.537232e-16 1.000000e+00
    outer loop
      vertex   -7.242358e+01 1.026098e+02 2.000000e+00
      vertex   -6.967358e+01 8.960976e+01 2.000000e+00
      vertex   -7.192358e+01 1.026098e+02 2.000000e+00
    endloop
  endfacet
  facet normal -4.325256e-10 -8.830818e-10 1.000000e+00
    outer loop
      vertex   -3.759766e+01 1.511129e+02 2.000000e+00
      vertex   -3.809766e+01 1.176098e+02 2.000000e+00
      vertex   -3.759766e+01 1.173649e+02 2.000000e+00
    endloop
  endfacet
  facet normal 0.000000e+00 -5.959848e-09 1.000000e+00
    outer loop
      vertex   -3.809766e+01 1.156129e+02 2.000000e+00
      vertex   -6.309766e+01 1.156129e+02 2.000000e+00
      vertex   -6.309766e+01 8.560976e+01 2.000000e+00
    endloop
  endfacet
  facet normal 3.576287e-07 -2.289662e-15 1.000000e+00
    outer loop
      vertex   -3.759766e+01 8.361686e+01 2.000000e+00
      vertex   -3.759766e+01 1.173649e+02 2.000000e+00
      vertex   -3.809766e+01 1.156129e+02 2.000000e+00
    endloop
  endfacet
  facet normal 6.994577e-07 -1.000000e+00 3.888845e-08
    outer loop
      vertex   -4.671625e+01 1.526129e+02 2.000000e+00
      vertex   -3.709725e+01 1.526129e+02 2.000000e+00
      vertex   -3.759766e+01 1.526129e+02 1.100049e+01
    endloop
  endfacet
  facet normal 7.378424e-07 -1.000000e+00 0.000000e+00
    outer loop
      vertex   -4.671625e+01 1.526129e+02 1.100049e+01
      vertex   -4.671625e+01 1.526129e+02 2.000000e+00
      vertex   -3.759766e+01 1.526129e+02 1.100049e+01
    endloop
  endfacet
  facet normal -0.000000e+00 -1.000000e+00 -0.000000e+00
    outer loop
      vertex   -4.671625e+01 1.526129e+02 1.100049e+01
      vertex   -6.480973e+01 1.526129e+02 1.100049e+01
      vertex   -4.671625e+01 1.526129e+02 2.000000e+00
    endloop
  endfacet
  facet normal -0.000000e+00 -1.000000e+00 0.000000e+00
    outer loop
      vertex   -4.671625e+01 1.526129e+02 2.000000e+00
      vertex   -6.480973e+01 1.526129e+02 1.100049e+01
      vertex   -7.859766e+01 1.526129e+02 2.000000e+00
    endloop
  endfacet
  facet normal 0.000000e+00 -1.000000e+00 0.000000e+00
    outer loop
      vertex   -7.859766e+01 1.526129e+02 2.000000e+00
      vertex   -6.480973e+01 1.526129e+02 1.100049e+01
      vertex   -7.859766e+01 1.526129e+02 2.000000e+01
    endloop
  endfacet
  facet normal 0.000000e+00 -1.000000e+00 0.000000e+00
    outer loop
      vertex   -7.859766e+01 1.526129e+02 2.000000e+01
      vertex   -6.480973e+01 1.526129e+02 1.100049e+01
      vertex   -7.859766e+01 1.526129e+02 2.100000e+01
    endloop
  endfacet
  facet normal 2.502284e-07 -1.000000e+00 3.450299e-07
    outer loop
      vertex   -7.859766e+01 1.526129e+02 2.100000e+01
      vertex   -6.480973e+01 1.526129e+02 1.100049e+01
      vertex   -6.480973e+01 1.526129e+02 3.050049e+01
    endloop
  endfacet
  facet normal 2.886627e-07 -1.000000e+00 -1.230793e-06
    outer loop
      vertex   -8.159766e+01 1.526129e+02 3.700000e+01
      vertex   -6.480973e+01 1.526129e+02 3.050049e+01
      vertex   -3.709725e+01 1.526129e+02 3.700000e+01
    endloop
  endfacet
  facet normal 6.654484e-07 -1.000000e+00 -2.575736e-07
    outer loop
      vertex   -8.159766e+01 1.526129e+02 3.700000e+01
      vertex   -7.859766e+01 1.526129e+02 2.100000e+01
      vertex   -6.480973e+01 1.526129e+02 3.050049e+01
    endloop
  endfacet
  facet normal 0.000000e+00 -1.000000e+00 -3.823453e-07
    outer loop
      vertex   -8.159766e+01 1.526129e+02 3.700000e+01
      vertex   -8.159766e+01 1.526129e+02 2.100000e+01
      vertex   -7.859766e+01 1.526129e+02 2.100000e+01
    endloop
  endfacet
  facet normal 0.000000e+00 -1.000000e+00 0.000000e+00
    outer loop
      vertex   -6.480973e+01 1.526129e+02 3.050049e+01
      vertex   -3.759766e+01 1.526129e+02 3.050049e+01
      vertex   -3.709725e+01 1.526129e+02 3.700000e+01
    endloop
  endfacet
  facet normal 0.000000e+00 -1.000000e+00 0.000000e+00
    outer loop
      vertex   -3.709725e+01 1.526129e+02 3.700000e+01
      vertex   -3.759766e+01 1.526129e+02 3.050049e+01
      vertex   -3.759766e+01 1.526129e+02 1.100049e+01
    endloop
  endfacet
  facet normal -0.000000e+00 -1.000000e+00 0.000000e+00
    outer loop
      vertex   -3.709725e+01 1.526129e+02 2.000000e+00
      vertex   -3.709725e+01 1.526129e+02 3.700000e+01
      vertex   -3.759766e+01 1.526129e+02 1.100049e+01
    endloop
  endfacet
  facet normal -2.368476e-14 0.000000e+00 1.000000e+00
    outer loop
      vertex   -7.859766e+01 1.146098e+02 3.700000e+01
      vertex   -8.159766e+01 1.254332e+02 3.700000e+01
      vertex   -7.859766e+01 1.046098e+02 3.700000e+01
    endloop
  endfacet
  facet normal -2.368476e-14 0.000000e+00 1.000000e+00
    outer loop
      vertex   -7.859766e+01 1.146098e+02 3.700000e+01
      vertex   -7.859766e+01 1.176098e+02 3.700000e+01
      vertex   -8.159766e+01 1.254332e+02 3.700000e+01
    endloop
  endfacet
  facet normal 1.123083e-06 0.000000e+00 1.000000e+00
    outer loop
      vertex   -7.859766e+01 1.146098e+02 3.700000e+01
      vertex   -7.689934e+01 1.163598e+02 3.700000e+01
      vertex   -7.859766e+01 1.176098e+02 3.700000e+01
    endloop
  endfacet
  facet normal 1.123083e-06 -0.000000e+00 1.000000e+00
    outer loop
      vertex   -7.859766e+01 1.146098e+02 3.700000e+01
      vertex   -7.689934e+01 1.158598e+02 3.700000e+01
      vertex   -7.689934e+01 1.163598e+02 3.700000e+01
    endloop
  endfacet
  facet normal -0.000000e+00 1.525879e-06 1.000000e+00
    outer loop
      vertex   -7.859766e+01 1.146098e+02 3.700000e+01
      vertex   -6.559767e+01 1.146098e+02 3.700000e+01
      vertex   -7.689934e+01 1.158598e+02 3.700000e+01
    endloop
  endfacet
  facet normal 0.000000e+00 1.525879e-06 1.000000e+00
    outer loop
      vertex   -7.689934e+01 1.158598e+02 3.700000e+01
      vertex   -6.559767e+01 1.146098e+02 3.700000e+01
      vertex   -6.689934e+01 1.158598e+02 3.700000e+01
    endloop
  endfacet
  facet normal -1.465300e-06 0.000000e+00 1.000000e+00
    outer loop
      vertex   -6.689934e+01 1.158598e+02 3.700000e+01
      vertex   -6.559767e+01 1.146098e+02 3.700000e+01
      vertex   -6.689934e+01 1.163598e+02 3.700000e+01
    endloop
  endfacet
  facet normal -3.918846e-07 7.984236e-07 1.000000e+00
    outer loop
      vertex   -6.689934e+01 1.163598e+02 3.700000e+01
      vertex   -6.559767e+01 1.146098e+02 3.700000e+01
      vertex   -6.309766e+01 1.156129e+02 3.700000e+01
    endloop
  endfacet
  facet normal 7.152557e-09 0.000000e+00 1.000000e+00
    outer loop
      vertex   -3.809766e+01 1.176098e+02 3.700000e+01
      vertex   -6.309766e+01 1.156129e+02 3.700000e+01
      vertex   -3.809766e+01 1.156129e+02 3.700000e+01
    endloop
  endfacet
  facet normal -1.535293e-07 2.011642e-06 1.000000e+00
    outer loop
      vertex   -3.809766e+01 1.176098e+02 3.700000e+01
      vertex   -6.689934e+01 1.163598e+02 3.700000e+01
      vertex   -6.309766e+01 1.156129e+02 3.700000e+01
    endloop
  endfacet
  facet normal 0.000000e+00 -1.525879e-06 1.000000e+00
    outer loop
      vertex   -3.809766e+01 1.176098e+02 3.700000e+01
      vertex   -7.859766e+01 1.176098e+02 3.700000e+01
      vertex   -6.689934e+01 1.163598e+02 3.700000e+01
    endloop
  endfacet
  facet normal 0.000000e+00 -1.525879e-06 1.000000e+00
    outer loop
      vertex   -6.689934e+01 1.163598e+02 3.700000e+01
      vertex   -7.859766e+01 1.176098e+02 3.700000e+01
      vertex   -7.689934e+01 1.163598e+02 3.700000e+01
    endloop
  endfacet
  facet normal -7.152540e-08 0.000000e+00 1.000000e+00
    outer loop
      vertex   -6.559767e+01 1.146098e+02 3.700000e+01
      vertex   -6.559767e+01 1.046098e+02 3.700000e+01
      vertex   -6.309766e+01 1.156129e+02 3.700000e+01
    endloop
  endfacet
  facet normal -7.152448e-08 -2.098925e-13 1.000000e+00
    outer loop
      vertex   -6.309766e+01 1.156129e+02 3.700000e+01
      vertex   -6.559767e+01 1.046098e+02 3.700000e+01
      vertex   -6.559766e+01 1.026098e+02 3.700000e+01
    endloop
  endfacet
  facet normal 0.000000e+00 0.000000e+00 1.000000e+00
    outer loop
      vertex   -6.309766e+01 8.560976e+01 3.700000e+01
      vertex   -6.559766e+01 1.026098e+02 3.700000e+01
      vertex   -6.559766e+01 8.960976e+01 3.700000e+01
    endloop
  endfacet
  facet normal 0.000000e+00 -0.000000e+00 1.000000e+00
    outer loop
      vertex   -6.609766e+01 8.260976e+01 3.700000e+01
      vertex   -6.559766e+01 8.960976e+01 3.700000e+01
      vertex   -6.967358e+01 8.960976e+01 3.700000e+01
    endloop
  endfacet
  facet normal 0.000000e+00 -0.000000e+00 1.000000e+00
    outer loop
      vertex   -6.967358e+01 8.160976e+01 3.700000e+01
      vertex   -6.609766e+01 8.260976e+01 3.700000e+01
      vertex   -6.967358e+01 8.960976e+01 3.700000e+01
    endloop
  endfacet
  facet normal 0.000000e+00 0.000000e+00 1.000000e+00
    outer loop
      vertex   -6.967358e+01 8.160976e+01 3.700000e+01
      vertex   -6.609766e+01 8.160976e+01 3.700000e+01
      vertex   -6.609766e+01 8.260976e+01 3.700000e+01
    endloop
  endfacet
  facet normal 0.000000e+00 0.000000e+00 1.000000e+00
    outer loop
      vertex   -6.559766e+01 1.026098e+02 3.700000e+01
      vertex   -6.559767e+01 1.046098e+02 3.700000e+01
      vertex   -7.859766e+01 1.026098e+02 3.700000e+01
    endloop
  endfacet
  facet normal 0.000000e+00 -0.000000e+00 1.000000e+00
    outer loop
      vertex   -7.859766e+01 1.026098e+02 3.700000e+01
      vertex   -6.559767e+01 1.046098e+02 3.700000e+01
      vertex   -7.859766e+01 1.046098e+02 3.700000e+01
    endloop
  endfacet
  facet normal -2.368468e-14 1.130348e-20 1.000000e+00
    outer loop
      vertex   -8.159766e+01 1.254332e+02 3.700000e+01
      vertex   -7.859766e+01 1.026098e+02 3.700000e+01
      vertex   -7.859766e+01 1.046098e+02 3.700000e+01
    endloop
  endfacet
  facet normal -2.368475e-14 1.555893e-21 1.000000e+00
    outer loop
      vertex   -8.159766e+01 1.254332e+02 3.700000e+01
      vertex   -8.159766e+01 7.460976e+01 3.700000e+01
      vertex   -7.859766e+01 1.026098e+02 3.700000e+01
    endloop
  endfacet
  facet normal -2.368474e-14 0.000000e+00 1.000000e+00
    outer loop
      vertex   -7.859766e+01 1.026098e+02 3.700000e+01
      vertex   -8.159766e+01 7.460976e+01 3.700000e+01
      vertex   -7.859766e+01 8.960976e+01 3.700000e+01
    endloop
  endfacet
  facet normal -3.445049e-14 2.153151e-15 1.000000e+00
    outer loop
      vertex   -7.859766e+01 8.960976e+01 3.700000e+01
      vertex   -8.159766e+01 7.460976e+01 3.700000e+01
      vertex   -7.909766e+01 8.160976e+01 3.700000e+01
    endloop
  endfacet
  facet normal 0.000000e+00 0.000000e+00 1.000000e+00
    outer loop
      vertex   -7.467358e+01 8.160976e+01 3.700000e+01
      vertex   -7.859766e+01 8.960976e+01 3.700000e+01
      vertex   -7.909766e+01 8.160976e+01 3.700000e+01
    endloop
  endfacet
  facet normal 0.000000e+00 -0.000000e+00 1.000000e+00
    outer loop
      vertex   -7.467358e+01 8.160976e+01 3.700000e+01
      vertex   -7.467358e+01 8.960976e+01 3.700000e+01
      vertex   -7.859766e+01 8.960976e+01 3.700000e+01
    endloop
  endfacet
  facet normal 0.000000e+00 1.987446e-15 1.000000e+00
    outer loop
      vertex   -3.759766e+01 1.511129e+02 3.700000e+01
      vertex   -3.359766e+01 1.153613e+02 3.700000e+01
      vertex   -3.709725e+01 1.511129e+02 3.700000e+01
    endloop
  endfacet
  facet normal -1.776357e-14 0.000000e+00 1.000000e+00
    outer loop
      vertex   -3.759766e+01 1.511129e+02 3.700000e+01
      vertex   -3.759766e+01 1.146112e+02 3.700000e+01
      vertex   -3.359766e+01 1.153613e+02 3.700000e+01
    endloop
  endfacet
  facet normal -1.776357e-14 0.000000e+00 1.000000e+00
    outer loop
      vertex   -3.359766e+01 1.153613e+02 3.700000e+01
      vertex   -3.759766e+01 1.146112e+02 3.700000e+01
      vertex   -3.759766e+01 7.810962e+01 3.700000e+01
    endloop
  endfacet
  facet normal 0.000000e+00 0.000000e+00 1.000000e+00
    outer loop
      vertex   -3.359766e+01 7.410976e+01 3.700000e+01
      vertex   -3.759766e+01 7.810962e+01 3.700000e+01
      vertex   -6.859766e+01 7.710962e+01 3.700000e+01
    endloop
  endfacet
  facet normal 0.000000e+00 -0.000000e+00 1.000000e+00
    outer loop
      vertex   -8.159766e+01 7.410976e+01 3.700000e+01
      vertex   -6.859766e+01 7.710962e+01 3.700000e+01
      vertex   -7.559766e+01 7.710962e+01 3.700000e+01
    endloop
  endfacet
  facet normal 0.000000e+00 -0.000000e+00 1.000000e+00
    outer loop
      vertex   -8.159766e+01 7.460976e+01 3.700000e+01
      vertex   -7.559766e+01 7.710962e+01 3.700000e+01
      vertex   -7.909766e+01 7.810962e+01 3.700000e+01
    endloop
  endfacet
  facet normal 2.841948e-14 -2.030044e-14 1.000000e+00
    outer loop
      vertex   -7.909766e+01 8.160976e+01 3.700000e+01
      vertex   -8.159766e+01 7.460976e+01 3.700000e+01
      vertex   -7.909766e+01 7.810962e+01 3.700000e+01
    endloop
  endfacet
  facet normal 0.000000e+00 0.000000e+00 1.000000e+00
    outer loop
      vertex   -3.759766e+01 7.810962e+01 3.700000e+01
      vertex   -6.859766e+01 7.810962e+01 3.700000e+01
      vertex   -6.859766e+01 7.710962e+01 3.700000e+01
    endloop
  endfacet
  facet normal 0.000000e+00 0.000000e+00 1.000000e+00
    outer loop
      vertex   -3.359766e+01 7.410976e+01 3.700000e+01
      vertex   -6.859766e+01 7.710962e+01 3.700000e+01
      vertex   -8.159766e+01 7.410976e+01 3.700000e+01
    endloop
  endfacet
  facet normal 0.000000e+00 -0.000000e+00 1.000000e+00
    outer loop
      vertex   -7.559766e+01 7.710962e+01 3.700000e+01
      vertex   -7.559766e+01 7.810962e+01 3.700000e+01
      vertex   -7.909766e+01 7.810962e+01 3.700000e+01
    endloop
  endfacet
  facet normal -4.052697e-08 -5.959848e-09 1.000000e+00
    outer loop
      vertex   -6.309766e+01 1.156129e+02 3.700000e+01
      vertex   -6.559766e+01 1.026098e+02 3.700000e+01
      vertex   -6.309766e+01 8.560976e+01 3.700000e+01
    endloop
  endfacet
  facet normal 0.000000e+00 0.000000e+00 1.000000e+00
    outer loop
      vertex   -6.309766e+01 8.560976e+01 3.700000e+01
      vertex   -6.559766e+01 8.960976e+01 3.700000e+01
      vertex   -6.609766e+01 8.260976e+01 3.700000e+01
    endloop
  endfacet
  facet normal -1.725647e-08 -6.617191e-09 1.000000e+00
    outer loop
      vertex   -7.859766e+01 1.176098e+02 3.700000e+01
      vertex   -7.859766e+01 1.446324e+02 3.700000e+01
      vertex   -8.159766e+01 1.254332e+02 3.700000e+01
    endloop
  endfacet
  facet normal -5.960470e-08 5.196762e-15 1.000000e+00
    outer loop
      vertex   -8.159766e+01 1.254332e+02 3.700000e+01
      vertex   -7.859766e+01 1.446324e+02 3.700000e+01
      vertex   -8.159766e+01 1.456324e+02 3.700000e+01
    endloop
  endfacet
  facet normal -5.960470e-08 0.000000e+00 1.000000e+00
    outer loop
      vertex   -8.159766e+01 1.456324e+02 3.700000e+01
      vertex   -7.859766e+01 1.446324e+02 3.700000e+01
      vertex   -8.159766e+01 1.466324e+02 3.700000e+01
    endloop
  endfacet
  facet normal 0.000000e+00 8.940700e-08 1.000000e+00
    outer loop
      vertex   -8.159766e+01 1.466324e+02 3.700000e+01
      vertex   -7.859766e+01 1.446324e+02 3.700000e+01
      vertex   -6.759766e+01 1.466324e+02 3.700000e+01
    endloop
  endfacet
  facet normal 1.986823e-08 -1.986823e-08 1.000000e+00
    outer loop
      vertex   -6.759766e+01 1.466324e+02 3.700000e+01
      vertex   -7.859766e+01 1.446324e+02 3.700000e+01
      vertex   -6.959766e+01 1.446324e+02 3.700000e+01
    endloop
  endfacet
  facet normal 0.000000e+00 0.000000e+00 1.000000e+00
    outer loop
      vertex   -6.759766e+01 1.296129e+02 3.700000e+01
      vertex   -6.959766e+01 1.446324e+02 3.700000e+01
      vertex   -6.959766e+01 1.296129e+02 3.700000e+01
    endloop
  endfacet
  facet normal 0.000000e+00 -0.000000e+00 1.000000e+00
    outer loop
      vertex   -6.759766e+01 1.296129e+02 3.700000e+01
      vertex   -6.759766e+01 1.466324e+02 3.700000e+01
      vertex   -6.959766e+01 1.446324e+02 3.700000e+01
    endloop
  endfacet
  facet normal -0.000000e+00 0.000000e+00 1.000000e+00
    outer loop
      vertex   -8.159766e+01 7.460976e+01 3.700000e+01
      vertex   -8.159766e+01 7.410976e+01 3.700000e+01
      vertex   -7.559766e+01 7.710962e+01 3.700000e+01
    endloop
  endfacet
  facet normal -1.722405e-15 -1.722463e-15 1.000000e+00
    outer loop
      vertex   -3.359766e+01 7.410976e+01 3.700000e+01
      vertex   -3.359766e+01 1.153613e+02 3.700000e+01
      vertex   -3.759766e+01 7.810962e+01 3.700000e+01
    endloop
  endfacet
  facet normal -4.428319e-08 -4.334720e-09 1.000000e+00
    outer loop
      vertex   -3.359766e+01 1.153613e+02 3.700000e+01
      vertex   -3.359766e+01 1.566129e+02 3.700000e+01
      vertex   -3.709725e+01 1.511129e+02 3.700000e+01
    endloop
  endfacet
  facet normal -5.109569e-08 0.000000e+00 1.000000e+00
    outer loop
      vertex   -3.709725e+01 1.511129e+02 3.700000e+01
      vertex   -3.359766e+01 1.566129e+02 3.700000e+01
      vertex   -3.709725e+01 1.526129e+02 3.700000e+01
    endloop
  endfacet
  facet normal 0.000000e+00 -4.470357e-08 1.000000e+00
    outer loop
      vertex   -3.709725e+01 1.526129e+02 3.700000e+01
      vertex   -3.359766e+01 1.566129e+02 3.700000e+01
      vertex   -8.159766e+01 1.566129e+02 3.700000e+01
    endloop
  endfacet
  facet normal 4.018255e-09 0.000000e+00 1.000000e+00
    outer loop
      vertex   -8.159766e+01 1.526129e+02 3.700000e+01
      vertex   -3.709725e+01 1.526129e+02 3.700000e+01
      vertex   -8.159766e+01 1.566129e+02 3.700000e+01
    endloop
  endfacet
  facet normal -1.000000e+00 -0.000000e+00 0.000000e+00
    outer loop
      vertex   -3.759766e+01 1.511129e+02 2.000000e+00
      vertex   -3.759766e+01 1.173649e+02 2.000000e+00
      vertex   -3.759766e+01 1.511129e+02 3.700000e+01
    endloop
  endfacet
  facet normal -1.000000e+00 -0.000000e+00 0.000000e+00
    outer loop
      vertex   -3.759766e+01 1.511129e+02 3.700000e+01
      vertex   -3.759766e+01 1.173649e+02 2.000000e+00
      vertex   -3.759766e+01 1.146112e+02 3.700000e+01
    endloop
  endfacet
  facet normal -1.000000e+00 -0.000000e+00 -0.000000e+00
    outer loop
      vertex   -3.759766e+01 1.146112e+02 3.700000e+01
      vertex   -3.759766e+01 1.173649e+02 2.000000e+00
      vertex   -3.759766e+01 8.361686e+01 3.000000e+00
    endloop
  endfacet
  facet normal -1.000000e+00 -0.000000e+00 -0.000000e+00
    outer loop
      vertex   -3.759766e+01 7.810962e+01 3.700000e+01
      vertex   -3.759766e+01 8.361686e+01 3.000000e+00
      vertex   -3.759766e+01 8.161686e+01 3.000000e+00
    endloop
  endfacet
  facet normal -1.000000e+00 0.000000e+00 0.000000e+00
    outer loop
      vertex   -3.759766e+01 7.810962e+01 2.000000e+00
      vertex   -3.759766e+01 8.161686e+01 3.000000e+00
      vertex   -3.759766e+01 8.161686e+01 2.000000e+00
    endloop
  endfacet
  facet normal -1.000000e+00 0.000000e+00 0.000000e+00
    outer loop
      vertex   -3.759766e+01 7.810962e+01 2.000000e+00
      vertex   -3.759766e+01 7.810962e+01 3.700000e+01
      vertex   -3.759766e+01 8.161686e+01 3.000000e+00
    endloop
  endfacet
  facet normal -1.000000e+00 -0.000000e+00 0.000000e+00
    outer loop
      vertex   -3.759766e+01 1.173649e+02 2.000000e+00
      vertex   -3.759766e+01 8.361686e+01 2.000000e+00
      vertex   -3.759766e+01 8.361686e+01 3.000000e+00
    endloop
  endfacet
  facet normal -1.000000e+00 -0.000000e+00 0.000000e+00
    outer loop
      vertex   -3.759766e+01 1.146112e+02 3.700000e+01
      vertex   -3.759766e+01 8.361686e+01 3.000000e+00
      vertex   -3.759766e+01 7.810962e+01 3.700000e+01
    endloop
  endfacet
  facet normal 2.611131e-16 0.000000e+00 -1.000000e+00
    outer loop
      vertex   -6.480973e+01 1.531129e+02 3.050049e+01
      vertex   -3.759766e+01 1.531129e+02 3.050049e+01
      vertex   -6.480973e+01 1.526129e+02 3.050049e+01
    endloop
  endfacet
  facet normal 2.611131e-16 0.000000e+00 -1.000000e+00
    outer loop
      vertex   -6.480973e+01 1.526129e+02 3.050049e+01
      vertex   -3.759766e+01 1.531129e+02 3.050049e+01
      vertex   -3.759766e+01 1.526129e+02 3.050049e+01
    endloop
  endfacet
  facet normal 1.000000e+00 -0.000000e+00 0.000000e+00
    outer loop
      vertex   -6.480973e+01 1.526129e+02 3.050049e+01
      vertex   -6.480973e+01 1.526129e+02 1.100049e+01
      vertex   -6.480973e+01 1.531129e+02 3.050049e+01
    endloop
  endfacet
  facet normal 1.000000e+00 -0.000000e+00 0.000000e+00
    outer loop
      vertex   -6.480973e+01 1.531129e+02 3.050049e+01
      vertex   -6.480973e+01 1.526129e+02 1.100049e+01
      vertex   -6.480973e+01 1.536129e+02 1.100049e+01
    endloop
  endfacet
  facet normal 1.000000e+00 0.000000e+00 0.000000e+00
    outer loop
      vertex   -6.480973e+01 1.536129e+02 3.000049e+01
      vertex   -6.480973e+01 1.531129e+02 3.050049e+01
      vertex   -6.480973e+01 1.536129e+02 1.100049e+01
    endloop
  endfacet
  facet normal 0.000000e+00 -0.000000e+00 1.000000e+00
    outer loop
      vertex   -3.759766e+01 1.526129e+02 1.100049e+01
      vertex   -3.759766e+01 1.536129e+02 1.100049e+01
      vertex   -4.671625e+01 1.526129e+02 1.100049e+01
    endloop
  endfacet
  facet normal 0.000000e+00 -0.000000e+00 1.000000e+00
    outer loop
      vertex   -4.671625e+01 1.526129e+02 1.100049e+01
      vertex   -3.759766e+01 1.536129e+02 1.100049e+01
      vertex   -6.480973e+01 1.536129e+02 1.100049e+01
    endloop
  endfacet
  facet normal 0.000000e+00 -0.000000e+00 1.000000e+00
    outer loop
      vertex   -6.480973e+01 1.526129e+02 1.100049e+01
      vertex   -4.671625e+01 1.526129e+02 1.100049e+01
      vertex   -6.480973e+01 1.536129e+02 1.100049e+01
    endloop
  endfacet
  facet normal -1.000000e+00 -2.098298e-06 -0.000000e+00
    outer loop
      vertex   -3.759766e+01 1.536129e+02 3.000049e+01
      vertex   -3.759766e+01 1.536129e+02 1.100049e+01
      vertex   -3.759766e+01 1.531129e+02 3.050049e+01
    endloop
  endfacet
  facet normal -1.000000e+00 0.000000e+00 5.380252e-08
    outer loop
      vertex   -3.759766e+01 1.531129e+02 3.050049e+01
      vertex   -3.759766e+01 1.536129e+02 1.100049e+01
      vertex   -3.759766e+01 1.526129e+02 1.100049e+01
    endloop
  endfacet
  facet normal -1.000000e+00 0.000000e+00 5.380252e-08
    outer loop
      vertex   -3.759766e+01 1.526129e+02 3.050049e+01
      vertex   -3.759766e+01 1.531129e+02 3.050049e+01
      vertex   -3.759766e+01 1.526129e+02 1.100049e+01
    endloop
  endfacet
  facet normal -0.000000e+00 -1.000000e+00 0.000000e+00
    outer loop
      vertex   -4.759741e+01 1.471129e+02 2.000000e+00
      vertex   -4.759741e+01 1.471129e+02 7.000000e+00
      vertex   -6.759766e+01 1.471129e+02 2.000000e+00
    endloop
  endfacet
  facet normal 0.000000e+00 -1.000000e+00 0.000000e+00
    outer loop
      vertex   -6.759766e+01 1.471129e+02 2.000000e+00
      vertex   -4.759741e+01 1.471129e+02 7.000000e+00
      vertex   -6.759766e+01 1.471129e+02 7.000000e+00
    endloop
  endfacet
  facet normal 1.000000e+00 -1.258197e-06 -1.075193e-12
    outer loop
      vertex   -6.759766e+01 1.486288e+02 7.000000e+00
      vertex   -6.759766e+01 1.486288e+02 2.100000e+01
      vertex   -6.759766e+01 1.471129e+02 7.000000e+00
    endloop
  endfacet
  facet normal 1.000000e+00 0.000000e+00 -1.362392e-07
    outer loop
      vertex   -6.759766e+01 1.471129e+02 7.000000e+00
      vertex   -6.759766e+01 1.486288e+02 2.100000e+01
      vertex   -6.759766e+01 1.466324e+02 2.100000e+01
    endloop
  endfacet
  facet normal 1.000000e+00 -1.120682e-07 0.000000e+00
    outer loop
      vertex   -6.759766e+01 1.296129e+02 2.000000e+00
      vertex   -6.759766e+01 1.466324e+02 2.100000e+01
      vertex   -6.759766e+01 1.296129e+02 3.700000e+01
    endloop
  endfacet
  facet normal 1.000000e+00 3.854751e-08 -1.349163e-07
    outer loop
      vertex   -6.759766e+01 1.296129e+02 2.000000e+00
      vertex   -6.759766e+01 1.471129e+02 7.000000e+00
      vertex   -6.759766e+01 1.466324e+02 2.100000e+01
    endloop
  endfacet
  facet normal 1.000000e+00 0.000000e+00 0.000000e+00
    outer loop
      vertex   -6.759766e+01 1.296129e+02 2.000000e+00
      vertex   -6.759766e+01 1.471129e+02 2.000000e+00
      vertex   -6.759766e+01 1.471129e+02 7.000000e+00
    endloop
  endfacet
  facet normal 1.000000e+00 0.000000e+00 1.192093e-07
    outer loop
      vertex   -6.759766e+01 1.466324e+02 2.100000e+01
      vertex   -6.759766e+01 1.466324e+02 3.700000e+01
      vertex   -6.759766e+01 1.296129e+02 3.700000e+01
    endloop
  endfacet
  facet normal 0.000000e+00 0.000000e+00 1.000000e+00
    outer loop
      vertex   -6.759766e+01 1.486288e+02 2.100000e+01
      vertex   -7.859766e+01 1.486288e+02 2.100000e+01
      vertex   -6.759766e+01 1.466324e+02 2.100000e+01
    endloop
  endfacet
  facet normal 0.000000e+00 0.000000e+00 1.000000e+00
    outer loop
      vertex   -6.759766e+01 1.466324e+02 2.100000e+01
      vertex   -7.859766e+01 1.486288e+02 2.100000e+01
      vertex   -8.159766e+01 1.466324e+02 2.100000e+01
    endloop
  endfacet
  facet normal 0.000000e+00 -0.000000e+00 1.000000e+00
    outer loop
      vertex   -8.159766e+01 1.466324e+02 2.100000e+01
      vertex   -7.859766e+01 1.486288e+02 2.100000e+01
      vertex   -8.159766e+01 1.496288e+02 2.100000e+01
    endloop
  endfacet
  facet normal -0.000000e+00 0.000000e+00 1.000000e+00
    outer loop
      vertex   -8.159766e+01 1.496288e+02 2.100000e+01
      vertex   -7.859766e+01 1.486288e+02 2.100000e+01
      vertex   -7.859766e+01 1.496288e+02 2.100000e+01
    endloop
  endfacet
  facet normal -0.000000e+00 0.000000e+00 1.000000e+00
    outer loop
      vertex   -8.159766e+01 1.526129e+02 2.100000e+01
      vertex   -7.859766e+01 1.496288e+02 2.100000e+01
      vertex   -7.859766e+01 1.526129e+02 2.100000e+01
    endloop
  endfacet
  facet normal -0.000000e+00 0.000000e+00 1.000000e+00
    outer loop
      vertex   -8.159766e+01 1.526129e+02 2.100000e+01
      vertex   -8.159766e+01 1.496288e+02 2.100000e+01
      vertex   -7.859766e+01 1.496288e+02 2.100000e+01
    endloop
  endfacet
  facet normal -1.000000e+00 -0.000000e+00 -0.000000e+00
    outer loop
      vertex   -5.259763e+01 1.496288e+02 7.000000e+00
      vertex   -5.259763e+01 1.496288e+02 2.000000e+00
      vertex   -5.259763e+01 1.486288e+02 7.000000e+00
    endloop
  endfacet
  facet normal -1.000000e+00 -0.000000e+00 -0.000000e+00
    outer loop
      vertex   -5.259763e+01 1.486288e+02 7.000000e+00
      vertex   -5.259763e+01 1.496288e+02 2.000000e+00
      vertex   -5.259763e+01 1.486288e+02 2.000000e+00
    endloop
  endfacet
  facet normal 1.000000e+00 -0.000000e+00 0.000000e+00
    outer loop
      vertex   -4.759741e+01 1.471129e+02 7.000000e+00
      vertex   -4.759741e+01 1.471129e+02 2.000000e+00
      vertex   -4.759741e+01 1.496288e+02 7.000000e+00
    endloop
  endfacet
  facet normal 1.000000e+00 -0.000000e+00 0.000000e+00
    outer loop
      vertex   -4.759741e+01 1.496288e+02 7.000000e+00
      vertex   -4.759741e+01 1.471129e+02 2.000000e+00
      vertex   -4.759741e+01 1.496288e+02 2.000000e+00
    endloop
  endfacet
  facet normal -0.000000e+00 0.000000e+00 1.000000e+00
    outer loop
      vertex   -6.759766e+01 1.486288e+02 7.000000e+00
      vertex   -6.759766e+01 1.471129e+02 7.000000e+00
      vertex   -5.259763e+01 1.486288e+02 7.000000e+00
    endloop
  endfacet
  facet normal -0.000000e+00 0.000000e+00 1.000000e+00
    outer loop
      vertex   -5.259763e+01 1.486288e+02 7.000000e+00
      vertex   -6.759766e+01 1.471129e+02 7.000000e+00
      vertex   -4.759741e+01 1.471129e+02 7.000000e+00
    endloop
  endfacet
  facet normal 5.027712e-08 1.658358e-07 1.000000e+00
    outer loop
      vertex   -4.759741e+01 1.496288e+02 7.000000e+00
      vertex   -5.259763e+01 1.486288e+02 7.000000e+00
      vertex   -4.759741e+01 1.471129e+02 7.000000e+00
    endloop
  endfacet
  facet normal 8.344281e-08 -1.776349e-15 1.000000e+00
    outer loop
      vertex   -4.759741e+01 1.496288e+02 7.000000e+00
      vertex   -5.259763e+01 1.496288e+02 7.000000e+00
      vertex   -5.259763e+01 1.486288e+02 7.000000e+00
    endloop
  endfacet
  facet normal 2.261934e-06 1.000000e+00 0.000000e+00
    outer loop
      vertex   -4.759741e+01 1.496288e+02 2.000000e+00
      vertex   -4.945263e+01 1.496288e+02 2.000000e+00
      vertex   -4.759741e+01 1.496288e+02 7.000000e+00
    endloop
  endfacet
  facet normal 8.392409e-07 1.000000e+00 5.278825e-07
    outer loop
      vertex   -4.759741e+01 1.496288e+02 7.000000e+00
      vertex   -4.945263e+01 1.496288e+02 2.000000e+00
      vertex   -5.259763e+01 1.496288e+02 7.000000e+00
    endloop
  endfacet
  facet normal 0.000000e+00 1.000000e+00 0.000000e+00
    outer loop
      vertex   -5.259763e+01 1.496288e+02 7.000000e+00
      vertex   -4.945263e+01 1.496288e+02 2.000000e+00
      vertex   -5.259763e+01 1.496288e+02 2.000000e+00
    endloop
  endfacet
  facet normal 0.000000e+00 1.000000e+00 0.000000e+00
    outer loop
      vertex   -5.259763e+01 1.486288e+02 7.000000e+00
      vertex   -5.259763e+01 1.486288e+02 2.000000e+00
      vertex   -6.759766e+01 1.486288e+02 7.000000e+00
    endloop
  endfacet
  facet normal -6.215417e-07 1.000000e+00 -1.864628e-06
    outer loop
      vertex   -6.759766e+01 1.486288e+02 7.000000e+00
      vertex   -5.259763e+01 1.486288e+02 2.000000e+00
      vertex   -7.859766e+01 1.486288e+02 2.000000e+00
    endloop
  endfacet
  facet normal -1.363130e-06 1.000000e+00 -2.331328e-07
    outer loop
      vertex   -7.859766e+01 1.486288e+02 2.000000e+01
      vertex   -6.759766e+01 1.486288e+02 7.000000e+00
      vertex   -7.859766e+01 1.486288e+02 2.000000e+00
    endloop
  endfacet
  facet normal -7.768640e-08 1.000000e+00 8.545507e-07
    outer loop
      vertex   -7.859766e+01 1.486288e+02 2.000000e+01
      vertex   -6.759766e+01 1.486288e+02 2.100000e+01
      vertex   -6.759766e+01 1.486288e+02 7.000000e+00
    endloop
  endfacet
  facet normal 0.000000e+00 1.000000e+00 0.000000e+00
    outer loop
      vertex   -7.859766e+01 1.486288e+02 2.000000e+01
      vertex   -7.859766e+01 1.486288e+02 2.100000e+01
      vertex   -6.759766e+01 1.486288e+02 2.100000e+01
    endloop
  endfacet
  facet normal 0.000000e+00 0.000000e+00 1.000000e+00
    outer loop
      vertex   -6.967358e+01 8.361686e+01 3.000000e+00
      vertex   -7.467358e+01 8.361686e+01 3.000000e+00
      vertex   -6.967358e+01 8.161686e+01 3.000000e+00
    endloop
  endfacet
  facet normal 0.000000e+00 0.000000e+00 1.000000e+00
    outer loop
      vertex   -6.967358e+01 8.161686e+01 3.000000e+00
      vertex   -7.467358e+01 8.361686e+01 3.000000e+00
      vertex   -7.467358e+01 8.161686e+01 3.000000e+00
    endloop
  endfacet
  facet normal 0.000000e+00 1.000000e+00 0.000000e+00
    outer loop
      vertex   -6.967358e+01 8.361686e+01 3.000000e+00
      vertex   -6.967358e+01 8.361686e+01 2.000000e+00
      vertex   -7.467358e+01 8.361686e+01 3.000000e+00
    endloop
  endfacet
  facet normal 0.000000e+00 1.000000e+00 0.000000e+00
    outer loop
      vertex   -7.467358e+01 8.361686e+01 3.000000e+00
      vertex   -6.967358e+01 8.361686e+01 2.000000e+00
      vertex   -7.467358e+01 8.361686e+01 2.000000e+00
    endloop
  endfacet
  facet normal 0.000000e+00 1.000000e+00 -0.000000e+00
    outer loop
      vertex   -3.759766e+01 8.361686e+01 2.000000e+00
      vertex   -6.509056e+01 8.361686e+01 2.000000e+00
      vertex   -3.759766e+01 8.361686e+01 3.000000e+00
    endloop
  endfacet
  facet normal 0.000000e+00 1.000000e+00 -0.000000e+00
    outer loop
      vertex   -3.759766e+01 8.361686e+01 3.000000e+00
      vertex   -6.509056e+01 8.361686e+01 2.000000e+00
      vertex   -6.509056e+01 8.361686e+01 3.000000e+00
    endloop
  endfacet
  facet normal -0.000000e+00 -1.000000e+00 0.000000e+00
    outer loop
      vertex   -6.967358e+01 8.161686e+01 2.000000e+00
      vertex   -6.967358e+01 8.161686e+01 3.000000e+00
      vertex   -7.467358e+01 8.161686e+01 2.000000e+00
    endloop
  endfacet
  facet normal 0.000000e+00 -1.000000e+00 0.000000e+00
    outer loop
      vertex   -7.467358e+01 8.161686e+01 2.000000e+00
      vertex   -6.967358e+01 8.161686e+01 3.000000e+00
      vertex   -7.467358e+01 8.161686e+01 3.000000e+00
    endloop
  endfacet
  facet normal -0.000000e+00 -1.000000e+00 -0.000000e+00
    outer loop
      vertex   -3.759766e+01 8.161686e+01 3.000000e+00
      vertex   -6.609766e+01 8.161686e+01 3.000000e+00
      vertex   -3.759766e+01 8.161686e+01 2.000000e+00
    endloop
  endfacet
  facet normal -0.000000e+00 -1.000000e+00 -0.000000e+00
    outer loop
      vertex   -3.759766e+01 8.161686e+01 2.000000e+00
      vertex   -6.609766e+01 8.161686e+01 3.000000e+00
      vertex   -6.609766e+01 8.161686e+01 2.000000e+00
    endloop
  endfacet
  facet normal 0.000000e+00 -4.472648e-16 1.000000e+00
    outer loop
      vertex   -6.609766e+01 8.161686e+01 3.000000e+00
      vertex   -3.759766e+01 8.161686e+01 3.000000e+00
      vertex   -6.609766e+01 8.260976e+01 3.000000e+00
    endloop
  endfacet
  facet normal 1.558208e-17 -0.000000e+00 1.000000e+00
    outer loop
      vertex   -6.609766e+01 8.260976e+01 3.000000e+00
      vertex   -3.759766e+01 8.161686e+01 3.000000e+00
      vertex   -3.759766e+01 8.361686e+01 3.000000e+00
    endloop
  endfacet
  facet normal 0.000000e+00 4.409584e-16 1.000000e+00
    outer loop
      vertex   -6.509056e+01 8.361686e+01 3.000000e+00
      vertex   -6.609766e+01 8.260976e+01 3.000000e+00
      vertex   -3.759766e+01 8.361686e+01 3.000000e+00
    endloop
  endfacet
  facet normal 7.071068e-01 -7.071068e-01 0.000000e+00
    outer loop
      vertex   -6.609766e+01 8.260976e+01 3.000000e+00
      vertex   -6.509056e+01 8.361686e+01 3.000000e+00
      vertex   -6.609766e+01 8.260976e+01 3.700000e+01
    endloop
  endfacet
  facet normal 7.071068e-01 -7.071068e-01 2.955468e-16
    outer loop
      vertex   -6.609766e+01 8.260976e+01 3.700000e+01
      vertex   -6.509056e+01 8.361686e+01 3.000000e+00
      vertex   -6.309766e+01 8.560976e+01 3.700000e+01
    endloop
  endfacet
  facet normal 7.071068e-01 -7.071068e-01 0.000000e+00
    outer loop
      vertex   -6.309766e+01 8.560976e+01 3.700000e+01
      vertex   -6.509056e+01 8.361686e+01 3.000000e+00
      vertex   -6.309766e+01 8.560976e+01 2.000000e+00
    endloop
  endfacet
  facet normal 7.071068e-01 -7.071068e-01 0.000000e+00
    outer loop
      vertex   -6.309766e+01 8.560976e+01 2.000000e+00
      vertex   -6.509056e+01 8.361686e+01 3.000000e+00
      vertex   -6.509056e+01 8.361686e+01 2.000000e+00
    endloop
  endfacet
  facet normal 0.000000e+00 1.088323e-11 1.000000e+00
    outer loop
      vertex   -6.609766e+01 8.161686e+01 2.000000e+00
      vertex   -6.609766e+01 8.160976e+01 2.000000e+00
      vertex   -3.759766e+01 8.161686e+01 2.000000e+00
    endloop
  endfacet
  facet normal 2.705477e-15 2.329825e-14 1.000000e+00
    outer loop
      vertex   -3.759766e+01 8.161686e+01 2.000000e+00
      vertex   -6.609766e+01 8.160976e+01 2.000000e+00
      vertex   -3.759766e+01 7.810962e+01 2.000000e+00
    endloop
  endfacet
  facet normal -1.432546e-16 1.023208e-16 1.000000e+00
    outer loop
      vertex   -3.759766e+01 7.810962e+01 2.000000e+00
      vertex   -6.609766e+01 8.160976e+01 2.000000e+00
      vertex   -6.859766e+01 7.810962e+01 2.000000e+00
    endloop
  endfacet
  facet normal 1.241888e-15 -8.870286e-16 1.000000e+00
    outer loop
      vertex   -6.859766e+01 7.810962e+01 2.000000e+00
      vertex   -6.609766e+01 8.160976e+01 2.000000e+00
      vertex   -6.967358e+01 8.160976e+01 2.000000e+00
    endloop
  endfacet
  facet normal -8.881784e-16 2.344902e-16 1.000000e+00
    outer loop
      vertex   -7.559766e+01 7.810962e+01 2.000000e+00
      vertex   -6.967358e+01 8.160976e+01 2.000000e+00
      vertex   -7.467358e+01 8.160976e+01 2.000000e+00
    endloop
  endfacet
  facet normal -0.000000e+00 0.000000e+00 1.000000e+00
    outer loop
      vertex   -7.909766e+01 8.160976e+01 2.000000e+00
      vertex   -7.559766e+01 7.810962e+01 2.000000e+00
      vertex   -7.467358e+01 8.160976e+01 2.000000e+00
    endloop
  endfacet
  facet normal -0.000000e+00 0.000000e+00 1.000000e+00
    outer loop
      vertex   -7.909766e+01 8.160976e+01 2.000000e+00
      vertex   -7.909766e+01 7.810962e+01 2.000000e+00
      vertex   -7.559766e+01 7.810962e+01 2.000000e+00
    endloop
  endfacet
  facet normal 0.000000e+00 1.150871e-11 1.000000e+00
    outer loop
      vertex   -6.967358e+01 8.161686e+01 2.000000e+00
      vertex   -7.467358e+01 8.161686e+01 2.000000e+00
      vertex   -6.967358e+01 8.160976e+01 2.000000e+00
    endloop
  endfacet
  facet normal -8.881784e-16 1.088323e-11 1.000000e+00
    outer loop
      vertex   -6.967358e+01 8.160976e+01 2.000000e+00
      vertex   -7.467358e+01 8.161686e+01 2.000000e+00
      vertex   -7.467358e+01 8.160976e+01 2.000000e+00
    endloop
  endfacet
  facet normal -0.000000e+00 8.881784e-16 1.000000e+00
    outer loop
      vertex   -7.559766e+01 7.710962e+01 2.000000e+00
      vertex   -6.859766e+01 7.710962e+01 2.000000e+00
      vertex   -7.559766e+01 7.810962e+01 2.000000e+00
    endloop
  endfacet
  facet normal 0.000000e+00 8.881784e-16 1.000000e+00
    outer loop
      vertex   -7.559766e+01 7.810962e+01 2.000000e+00
      vertex   -6.859766e+01 7.710962e+01 2.000000e+00
      vertex   -6.859766e+01 7.810962e+01 2.000000e+00
    endloop
  endfacet
  facet normal 0.000000e+00 -1.268778e-15 1.000000e+00
    outer loop
      vertex   -6.967358e+01 8.160976e+01 2.000000e+00
      vertex   -7.559766e+01 7.810962e+01 2.000000e+00
      vertex   -6.859766e+01 7.810962e+01 2.000000e+00
    endloop
  endfacet
  facet normal 1.000000e+00 0.000000e+00 -0.000000e+00
    outer loop
      vertex   -7.467358e+01 8.161686e+01 2.000000e+00
      vertex   -7.467358e+01 8.161686e+01 3.000000e+00
      vertex   -7.467358e+01 8.160976e+01 2.000000e+00
    endloop
  endfacet
  facet normal 1.000000e+00 0.000000e+00 -0.000000e+00
    outer loop
      vertex   -7.467358e+01 8.160976e+01 2.000000e+00
      vertex   -7.467358e+01 8.161686e+01 3.000000e+00
      vertex   -7.467358e+01 8.160976e+01 3.700000e+01
    endloop
  endfacet
  facet normal 1.000000e+00 -0.000000e+00 0.000000e+00
    outer loop
      vertex   -7.467358e+01 8.160976e+01 3.700000e+01
      vertex   -7.467358e+01 8.161686e+01 3.000000e+00
      vertex   -7.467358e+01 8.361686e+01 3.000000e+00
    endloop
  endfacet
  facet normal 1.000000e+00 0.000000e+00 0.000000e+00
    outer loop
      vertex   -7.467358e+01 8.960976e+01 3.700000e+01
      vertex   -7.467358e+01 8.361686e+01 3.000000e+00
      vertex   -7.467358e+01 8.960976e+01 2.000000e+00
    endloop
  endfacet
  facet normal 1.000000e+00 0.000000e+00 0.000000e+00
    outer loop
      vertex   -7.467358e+01 8.960976e+01 3.700000e+01
      vertex   -7.467358e+01 8.160976e+01 3.700000e+01
      vertex   -7.467358e+01 8.361686e+01 3.000000e+00
    endloop
  endfacet
  facet normal 1.000000e+00 -0.000000e+00 0.000000e+00
    outer loop
      vertex   -7.467358e+01 8.361686e+01 3.000000e+00
      vertex   -7.467358e+01 8.361686e+01 2.000000e+00
      vertex   -7.467358e+01 8.960976e+01 2.000000e+00
    endloop
  endfacet
  facet normal 0.000000e+00 -1.000000e+00 1.932057e-08
    outer loop
      vertex   -3.359766e+01 7.410976e+01 -2.000000e+00
      vertex   -3.359766e+01 7.410976e+01 3.700000e+01
      vertex   -8.159766e+01 7.410976e+01 -2.000000e+00
    endloop
  endfacet
  facet normal -2.960595e-16 -1.000000e+00 1.932057e-08
    outer loop
      vertex   -8.159766e+01 7.410976e+01 -2.000000e+00
      vertex   -3.359766e+01 7.410976e+01 3.700000e+01
      vertex   -8.159766e+01 7.410976e+01 3.700000e+01
    endloop
  endfacet
  facet normal 0.000000e+00 0.000000e+00 -1.000000e+00
    outer loop
      vertex   -8.159766e+01 7.410976e+01 -2.000000e+00
      vertex   -8.159766e+01 7.460976e+01 -2.000000e+00
      vertex   -3.359766e+01 7.410976e+01 -2.000000e+00
    endloop
  endfacet
  facet normal -1.121395e-19 -1.076539e-17 -1.000000e+00
    outer loop
      vertex   -3.359766e+01 7.410976e+01 -2.000000e+00
      vertex   -8.159766e+01 7.460976e+01 -2.000000e+00
      vertex   -3.359766e+01 1.153613e+02 -2.000000e+00
    endloop
  endfacet
  facet normal 1.462020e-15 -1.732966e-15 -1.000000e+00
    outer loop
      vertex   -3.359766e+01 1.153613e+02 -2.000000e+00
      vertex   -8.159766e+01 7.460976e+01 -2.000000e+00
      vertex   -8.159766e+01 1.156113e+02 -2.000000e+00
    endloop
  endfacet
  facet normal 0.000000e+00 1.722134e-15 -1.000000e+00
    outer loop
      vertex   -3.359766e+01 1.566129e+02 -2.000000e+00
      vertex   -8.159766e+01 1.156113e+02 -2.000000e+00
      vertex   -8.159766e+01 1.566129e+02 -2.000000e+00
    endloop
  endfacet
  facet normal 1.471046e-15 0.000000e+00 -1.000000e+00
    outer loop
      vertex   -3.359766e+01 1.566129e+02 -2.000000e+00
      vertex   -3.359766e+01 1.153613e+02 -2.000000e+00
      vertex   -8.159766e+01 1.156113e+02 -2.000000e+00
    endloop
  endfacet
  facet normal -1.000000e+00 0.000000e+00 0.000000e+00
    outer loop
      vertex   -8.159766e+01 7.410976e+01 -2.000000e+00
      vertex   -8.159766e+01 7.410976e+01 3.700000e+01
      vertex   -8.159766e+01 7.460976e+01 -2.000000e+00
    endloop
  endfacet
  facet normal -1.000000e+00 0.000000e+00 0.000000e+00
    outer loop
      vertex   -8.159766e+01 7.460976e+01 -2.000000e+00
      vertex   -8.159766e+01 7.410976e+01 3.700000e+01
      vertex   -8.159766e+01 7.460976e+01 3.700000e+01
    endloop
  endfacet
  facet normal -1.000000e+00 6.569176e-08 -1.654407e-08
    outer loop
      vertex   -8.159766e+01 1.156113e+02 -2.000000e+00
      vertex   -8.159766e+01 7.460976e+01 3.700000e+01
      vertex   -8.159766e+01 1.254332e+02 3.700000e+01
    endloop
  endfacet
  facet normal -1.000000e+00 8.718712e-08 5.449195e-09
    outer loop
      vertex   -8.159766e+01 1.466324e+02 2.100000e+01
      vertex   -8.159766e+01 1.254332e+02 3.700000e+01
      vertex   -8.159766e+01 1.456324e+02 3.700000e+01
    endloop
  endfacet
  facet normal -1.000000e+00 -0.000000e+00 -0.000000e+00
    outer loop
      vertex   -8.159766e+01 1.466324e+02 3.700000e+01
      vertex   -8.159766e+01 1.466324e+02 2.100000e+01
      vertex   -8.159766e+01 1.456324e+02 3.700000e+01
    endloop
  endfacet
  facet normal -1.000000e+00 8.142821e-08 -1.573240e-15
    outer loop
      vertex   -8.159766e+01 7.460976e+01 -2.000000e+00
      vertex   -8.159766e+01 7.460976e+01 3.700000e+01
      vertex   -8.159766e+01 1.156113e+02 -2.000000e+00
    endloop
  endfacet
  facet normal -1.000000e+00 6.980579e-08 -1.758016e-08
    outer loop
      vertex   -8.159766e+01 1.156113e+02 -2.000000e+00
      vertex   -8.159766e+01 1.254332e+02 3.700000e+01
      vertex   -8.159766e+01 1.466324e+02 2.100000e+01
    endloop
  endfacet
  facet normal -1.000000e+00 -2.227907e-06 -8.486933e-07
    outer loop
      vertex   -8.159766e+01 1.566129e+02 -2.000000e+00
      vertex   -8.159766e+01 1.466324e+02 2.100000e+01
      vertex   -8.159766e+01 1.496288e+02 2.100000e+01
    endloop
  endfacet
  facet normal -1.000000e+00 1.646956e-06 3.279270e-07
    outer loop
      vertex   -8.159766e+01 1.526129e+02 2.100000e+01
      vertex   -8.159766e+01 1.566129e+02 -2.000000e+00
      vertex   -8.159766e+01 1.496288e+02 2.100000e+01
    endloop
  endfacet
  facet normal -1.000000e+00 -5.901388e-07 -6.113297e-08
    outer loop
      vertex   -8.159766e+01 1.526129e+02 2.100000e+01
      vertex   -8.159766e+01 1.566129e+02 3.700000e+01
      vertex   -8.159766e+01 1.566129e+02 -2.000000e+00
    endloop
  endfacet
  facet normal -1.000000e+00 0.000000e+00 -2.086677e-07
    outer loop
      vertex   -8.159766e+01 1.526129e+02 2.100000e+01
      vertex   -8.159766e+01 1.526129e+02 3.700000e+01
      vertex   -8.159766e+01 1.566129e+02 3.700000e+01
    endloop
  endfacet
  facet normal -1.000000e+00 -2.327954e-08 1.079680e-07
    outer loop
      vertex   -8.159766e+01 1.156113e+02 -2.000000e+00
      vertex   -8.159766e+01 1.466324e+02 2.100000e+01
      vertex   -8.159766e+01 1.566129e+02 -2.000000e+00
    endloop
  endfacet
  facet normal 9.168294e-16 1.000000e+00 -0.000000e+00
    outer loop
      vertex   -6.859766e+01 7.810962e+01 2.000000e+00
      vertex   -6.859766e+01 7.810962e+01 3.700000e+01
      vertex   -3.759766e+01 7.810962e+01 2.000000e+00
    endloop
  endfacet
  facet normal 9.168294e-16 1.000000e+00 0.000000e+00
    outer loop
      vertex   -3.759766e+01 7.810962e+01 2.000000e+00
      vertex   -6.859766e+01 7.810962e+01 3.700000e+01
      vertex   -3.759766e+01 7.810962e+01 3.700000e+01
    endloop
  endfacet
  facet normal 0.000000e+00 1.000000e+00 8.120488e-16
    outer loop
      vertex   -7.559766e+01 7.810962e+01 3.700000e+01
      vertex   -7.559766e+01 7.810962e+01 2.000000e+00
      vertex   -7.909766e+01 7.810962e+01 3.700000e+01
    endloop
  endfacet
  facet normal -8.120490e-15 1.000000e+00 -9.891351e-30
    outer loop
      vertex   -7.909766e+01 7.810962e+01 3.700000e+01
      vertex   -7.559766e+01 7.810962e+01 2.000000e+00
      vertex   -7.909766e+01 7.810962e+01 2.000000e+00
    endloop
  endfacet
  facet normal -0.000000e+00 1.000000e+00 0.000000e+00
    outer loop
      vertex   -7.559766e+01 7.710962e+01 2.000000e+00
      vertex   -7.559766e+01 7.710962e+01 3.700000e+01
      vertex   -6.859766e+01 7.710962e+01 2.000000e+00
    endloop
  endfacet
  facet normal 0.000000e+00 1.000000e+00 -0.000000e+00
    outer loop
      vertex   -6.859766e+01 7.710962e+01 2.000000e+00
      vertex   -7.559766e+01 7.710962e+01 3.700000e+01
      vertex   -6.859766e+01 7.710962e+01 3.700000e+01
    endloop
  endfacet
  facet normal 1.000000e+00 -0.000000e+00 0.000000e+00
    outer loop
      vertex   -7.559766e+01 7.710962e+01 3.700000e+01
      vertex   -7.559766e+01 7.710962e+01 2.000000e+00
      vertex   -7.559766e+01 7.810962e+01 3.700000e+01
    endloop
  endfacet
  facet normal 1.000000e+00 0.000000e+00 0.000000e+00
    outer loop
      vertex   -7.559766e+01 7.810962e+01 3.700000e+01
      vertex   -7.559766e+01 7.710962e+01 2.000000e+00
      vertex   -7.559766e+01 7.810962e+01 2.000000e+00
    endloop
  endfacet
  facet normal -1.000000e+00 0.000000e+00 0.000000e+00
    outer loop
      vertex   -6.859766e+01 7.710962e+01 2.000000e+00
      vertex   -6.859766e+01 7.710962e+01 3.700000e+01
      vertex   -6.859766e+01 7.810962e+01 2.000000e+00
    endloop
  endfacet
  facet normal -1.000000e+00 0.000000e+00 0.000000e+00
    outer loop
      vertex   -6.859766e+01 7.810962e+01 2.000000e+00
      vertex   -6.859766e+01 7.710962e+01 3.700000e+01
      vertex   -6.859766e+01 7.810962e+01 3.700000e+01
    endloop
  endfacet
  facet normal 1.000000e+00 -0.000000e+00 -0.000000e+00
    outer loop
      vertex   -3.809766e+01 1.156129e+02 2.000000e+00
      vertex   -3.809766e+01 1.176098e+02 2.000000e+00
      vertex   -3.809766e+01 1.156129e+02 3.700000e+01
    endloop
  endfacet
  facet normal 1.000000e+00 -0.000000e+00 0.000000e+00
    outer loop
      vertex   -3.809766e+01 1.156129e+02 3.700000e+01
      vertex   -3.809766e+01 1.176098e+02 2.000000e+00
      vertex   -3.809766e+01 1.176098e+02 3.700000e+01
    endloop
  endfacet
  facet normal -0.000000e+00 -1.000000e+00 0.000000e+00
    outer loop
      vertex   -3.809766e+01 1.156129e+02 2.000000e+00
      vertex   -3.809766e+01 1.156129e+02 3.700000e+01
      vertex   -6.309766e+01 1.156129e+02 2.000000e+00
    endloop
  endfacet
  facet normal 0.000000e+00 -1.000000e+00 0.000000e+00
    outer loop
      vertex   -6.309766e+01 1.156129e+02 2.000000e+00
      vertex   -3.809766e+01 1.156129e+02 3.700000e+01
      vertex   -6.309766e+01 1.156129e+02 3.700000e+01
    endloop
  endfacet
  facet normal 1.525879e-07 1.000000e+00 -1.089914e-07
    outer loop
      vertex   -3.809766e+01 1.176098e+02 2.000000e+00
      vertex   -6.309766e+01 1.176098e+02 2.000000e+00
      vertex   -3.809766e+01 1.176098e+02 3.700000e+01
    endloop
  endfacet
  facet normal 0.000000e+00 1.000000e+00 0.000000e+00
    outer loop
      vertex   -3.809766e+01 1.176098e+02 3.700000e+01
      vertex   -6.309766e+01 1.176098e+02 2.000000e+00
      vertex   -7.042358e+01 1.176098e+02 3.500000e+01
    endloop
  endfacet
  facet normal 0.000000e+00 1.000000e+00 0.000000e+00
    outer loop
      vertex   -7.859766e+01 1.176098e+02 3.700000e+01
      vertex   -7.042358e+01 1.176098e+02 3.500000e+01
      vertex   -7.392358e+01 1.176098e+02 3.500000e+01
    endloop
  endfacet
  facet normal -0.000000e+00 1.000000e+00 0.000000e+00
    outer loop
      vertex   -7.859766e+01 1.176098e+02 2.000000e+00
      vertex   -7.392358e+01 1.176098e+02 3.500000e+01
      vertex   -7.392358e+01 1.176098e+02 2.000000e+00
    endloop
  endfacet
  facet normal -0.000000e+00 1.000000e+00 0.000000e+00
    outer loop
      vertex   -7.859766e+01 1.176098e+02 2.000000e+00
      vertex   -7.859766e+01 1.176098e+02 3.700000e+01
      vertex   -7.392358e+01 1.176098e+02 3.500000e+01
    endloop
  endfacet
  facet normal -5.207124e-07 1.000000e+00 -1.155969e-07
    outer loop
      vertex   -6.309766e+01 1.176098e+02 2.000000e+00
      vertex   -7.042358e+01 1.176098e+02 2.000000e+00
      vertex   -7.042358e+01 1.176098e+02 3.500000e+01
    endloop
  endfacet
  facet normal 0.000000e+00 1.000000e+00 0.000000e+00
    outer loop
      vertex   -3.809766e+01 1.176098e+02 3.700000e+01
      vertex   -7.042358e+01 1.176098e+02 3.500000e+01
      vertex   -7.859766e+01 1.176098e+02 3.700000e+01
    endloop
  endfacet
  facet normal 1.000000e+00 0.000000e+00 -0.000000e+00
    outer loop
      vertex   -6.609766e+01 8.260976e+01 3.000000e+00
      vertex   -6.609766e+01 8.260976e+01 3.700000e+01
      vertex   -6.609766e+01 8.161686e+01 3.000000e+00
    endloop
  endfacet
  facet normal 1.000000e+00 0.000000e+00 -0.000000e+00
    outer loop
      vertex   -6.609766e+01 8.161686e+01 3.000000e+00
      vertex   -6.609766e+01 8.260976e+01 3.700000e+01
      vertex   -6.609766e+01 8.160976e+01 3.700000e+01
    endloop
  endfacet
  facet normal 1.000000e+00 0.000000e+00 -0.000000e+00
    outer loop
      vertex   -6.609766e+01 8.160976e+01 2.000000e+00
      vertex   -6.609766e+01 8.161686e+01 3.000000e+00
      vertex   -6.609766e+01 8.160976e+01 3.700000e+01
    endloop
  endfacet
  facet normal 1.000000e+00 -0.000000e+00 0.000000e+00
    outer loop
      vertex   -6.609766e+01 8.160976e+01 2.000000e+00
      vertex   -6.609766e+01 8.161686e+01 2.000000e+00
      vertex   -6.609766e+01 8.161686e+01 3.000000e+00
    endloop
  endfacet
  facet normal 7.948083e-15 -1.000000e+00 -8.120488e-16
    outer loop
      vertex   -6.609766e+01 8.160976e+01 2.000000e+00
      vertex   -6.609766e+01 8.160976e+01 3.700000e+01
      vertex   -6.967358e+01 8.160976e+01 2.000000e+00
    endloop
  endfacet
  facet normal 0.000000e+00 -1.000000e+00 0.000000e+00
    outer loop
      vertex   -6.967358e+01 8.160976e+01 2.000000e+00
      vertex   -6.609766e+01 8.160976e+01 3.700000e+01
      vertex   -6.967358e+01 8.160976e+01 3.700000e+01
    endloop
  endfacet
  facet normal 0.000000e+00 -1.000000e+00 -8.120488e-16
    outer loop
      vertex   -7.467358e+01 8.160976e+01 2.000000e+00
      vertex   -7.467358e+01 8.160976e+01 3.700000e+01
      vertex   -7.909766e+01 8.160976e+01 2.000000e+00
    endloop
  endfacet
  facet normal -0.000000e+00 -1.000000e+00 -8.120488e-16
    outer loop
      vertex   -7.909766e+01 8.160976e+01 2.000000e+00
      vertex   -7.467358e+01 8.160976e+01 3.700000e+01
      vertex   -7.909766e+01 8.160976e+01 3.700000e+01
    endloop
  endfacet
  facet normal 1.000000e+00 -2.637592e-29 1.218073e-15
    outer loop
      vertex   -7.909766e+01 7.810962e+01 3.700000e+01
      vertex   -7.909766e+01 7.810962e+01 2.000000e+00
      vertex   -7.909766e+01 8.160976e+01 3.700000e+01
    endloop
  endfacet
  facet normal 1.000000e+00 1.218026e-14 9.890970e-30
    outer loop
      vertex   -7.909766e+01 8.160976e+01 3.700000e+01
      vertex   -7.909766e+01 7.810962e+01 2.000000e+00
      vertex   -7.909766e+01 8.160976e+01 2.000000e+00
    endloop
  endfacet
  facet normal 1.846348e-16 -7.071068e-01 -7.071068e-01
    outer loop
      vertex   -3.759766e+01 1.531129e+02 3.050049e+01
      vertex   -6.480973e+01 1.531129e+02 3.050049e+01
      vertex   -3.759766e+01 1.536129e+02 3.000049e+01
    endloop
  endfacet
  facet normal 0.000000e+00 -7.071068e-01 -7.071068e-01
    outer loop
      vertex   -3.759766e+01 1.536129e+02 3.000049e+01
      vertex   -6.480973e+01 1.531129e+02 3.050049e+01
      vertex   -6.480973e+01 1.536129e+02 3.000049e+01
    endloop
  endfacet
  facet normal 0.000000e+00 -1.000000e+00 0.000000e+00
    outer loop
      vertex   -6.480973e+01 1.536129e+02 3.000049e+01
      vertex   -6.480973e+01 1.536129e+02 1.100049e+01
      vertex   -3.759766e+01 1.536129e+02 3.000049e+01
    endloop
  endfacet
  facet normal 0.000000e+00 -1.000000e+00 -0.000000e+00
    outer loop
      vertex   -3.759766e+01 1.536129e+02 3.000049e+01
      vertex   -6.480973e+01 1.536129e+02 1.100049e+01
      vertex   -3.759766e+01 1.536129e+02 1.100049e+01
    endloop
  endfacet
  facet normal 1.000000e+00 0.000000e+00 -0.000000e+00
    outer loop
      vertex   -7.859766e+01 1.486288e+02 2.000000e+00
      vertex   -7.859766e+01 1.526129e+02 2.000000e+00
      vertex   -7.859766e+01 1.496288e+02 2.100000e+01
    endloop
  endfacet
  facet normal 1.000000e+00 0.000000e+00 -0.000000e+00
    outer loop
      vertex   -7.859766e+01 1.486288e+02 2.000000e+01
      vertex   -7.859766e+01 1.496288e+02 2.100000e+01
      vertex   -7.859766e+01 1.486288e+02 2.100000e+01
    endloop
  endfacet
  facet normal 1.000000e+00 -0.000000e+00 0.000000e+00
    outer loop
      vertex   -7.859766e+01 1.486288e+02 2.000000e+01
      vertex   -7.859766e+01 1.486288e+02 2.000000e+00
      vertex   -7.859766e+01 1.496288e+02 2.100000e+01
    endloop
  endfacet
  facet normal 1.000000e+00 0.000000e+00 0.000000e+00
    outer loop
      vertex   -7.859766e+01 1.526129e+02 2.100000e+01
      vertex   -7.859766e+01 1.496288e+02 2.100000e+01
      vertex   -7.859766e+01 1.526129e+02 2.000000e+01
    endloop
  endfacet
  facet normal 1.000000e+00 0.000000e+00 0.000000e+00
    outer loop
      vertex   -7.859766e+01 1.526129e+02 2.000000e+01
      vertex   -7.859766e+01 1.496288e+02 2.100000e+01
      vertex   -7.859766e+01 1.526129e+02 2.000000e+00
    endloop
  endfacet
  facet normal 1.000000e+00 5.295739e-26 4.919224e-09
    outer loop
      vertex   -3.359766e+01 7.410976e+01 -2.000000e+00
      vertex   -3.359766e+01 1.153613e+02 -2.000000e+00
      vertex   -3.359766e+01 7.410976e+01 3.700000e+01
    endloop
  endfacet
  facet normal 1.000000e+00 -4.650728e-09 4.492737e-17
    outer loop
      vertex   -3.359766e+01 7.410976e+01 3.700000e+01
      vertex   -3.359766e+01 1.153613e+02 -2.000000e+00
      vertex   -3.359766e+01 1.153613e+02 3.700000e+01
    endloop
  endfacet
  facet normal 1.000000e+00 -0.000000e+00 0.000000e+00
    outer loop
      vertex   -3.359766e+01 1.153613e+02 3.700000e+01
      vertex   -3.359766e+01 1.153613e+02 -2.000000e+00
      vertex   -3.359766e+01 1.566129e+02 -2.000000e+00
    endloop
  endfacet
  facet normal 1.000000e+00 0.000000e+00 0.000000e+00
    outer loop
      vertex   -3.359766e+01 1.566129e+02 3.700000e+01
      vertex   -3.359766e+01 1.153613e+02 3.700000e+01
      vertex   -3.359766e+01 1.566129e+02 -2.000000e+00
    endloop
  endfacet
  facet normal -1.000000e+00 0.000000e+00 0.000000e+00
    outer loop
      vertex   -6.967358e+01 8.161686e+01 2.000000e+00
      vertex   -6.967358e+01 8.160976e+01 2.000000e+00
      vertex   -6.967358e+01 8.161686e+01 3.000000e+00
    endloop
  endfacet
  facet normal -1.000000e+00 -0.000000e+00 0.000000e+00
    outer loop
      vertex   -6.967358e+01 8.161686e+01 3.000000e+00
      vertex   -6.967358e+01 8.160976e+01 2.000000e+00
      vertex   -6.967358e+01 8.160976e+01 3.700000e+01
    endloop
  endfacet
  facet normal -1.000000e+00 0.000000e+00 0.000000e+00
    outer loop
      vertex   -6.967358e+01 8.361686e+01 3.000000e+00
      vertex   -6.967358e+01 8.160976e+01 3.700000e+01
      vertex   -6.967358e+01 8.960976e+01 3.700000e+01
    endloop
  endfacet
  facet normal -1.000000e+00 0.000000e+00 0.000000e+00
    outer loop
      vertex   -6.967358e+01 8.960976e+01 2.000000e+00
      vertex   -6.967358e+01 8.361686e+01 3.000000e+00
      vertex   -6.967358e+01 8.960976e+01 3.700000e+01
    endloop
  endfacet
  facet normal -1.000000e+00 -0.000000e+00 0.000000e+00
    outer loop
      vertex   -6.967358e+01 8.960976e+01 2.000000e+00
      vertex   -6.967358e+01 8.361686e+01 2.000000e+00
      vertex   -6.967358e+01 8.361686e+01 3.000000e+00
    endloop
  endfacet
  facet normal -1.000000e+00 0.000000e+00 0.000000e+00
    outer loop
      vertex   -6.967358e+01 8.161686e+01 3.000000e+00
      vertex   -6.967358e+01 8.160976e+01 3.700000e+01
      vertex   -6.967358e+01 8.361686e+01 3.000000e+00
    endloop
  endfacet
  facet normal -0.000000e+00 -1.000000e+00 0.000000e+00
    outer loop
      vertex   -6.759766e+01 1.296129e+02 2.000000e+00
      vertex   -6.759766e+01 1.296129e+02 3.700000e+01
      vertex   -6.959766e+01 1.296129e+02 2.000000e+00
    endloop
  endfacet
  facet normal 0.000000e+00 -1.000000e+00 0.000000e+00
    outer loop
      vertex   -6.959766e+01 1.296129e+02 2.000000e+00
      vertex   -6.759766e+01 1.296129e+02 3.700000e+01
      vertex   -6.959766e+01 1.296129e+02 3.700000e+01
    endloop
  endfacet
  facet normal -1.000000e+00 0.000000e+00 0.000000e+00
    outer loop
      vertex   -6.959766e+01 1.296129e+02 2.000000e+00
      vertex   -6.959766e+01 1.296129e+02 3.700000e+01
      vertex   -6.959766e+01 1.446324e+02 2.000000e+00
    endloop
  endfacet
  facet normal -1.000000e+00 0.000000e+00 0.000000e+00
    outer loop
      vertex   -6.959766e+01 1.446324e+02 2.000000e+00
      vertex   -6.959766e+01 1.296129e+02 3.700000e+01
      vertex   -6.959766e+01 1.446324e+02 3.700000e+01
    endloop
  endfacet
  facet normal 0.000000e+00 1.000000e+00 -0.000000e+00
    outer loop
      vertex   -6.759766e+01 1.466324e+02 2.100000e+01
      vertex   -8.159766e+01 1.466324e+02 2.100000e+01
      vertex   -6.759766e+01 1.466324e+02 3.700000e+01
    endloop
  endfacet
  facet normal 0.000000e+00 1.000000e+00 -0.000000e+00
    outer loop
      vertex   -6.759766e+01 1.466324e+02 3.700000e+01
      vertex   -8.159766e+01 1.466324e+02 2.100000e+01
      vertex   -8.159766e+01 1.466324e+02 3.700000e+01
    endloop
  endfacet
  facet normal -0.000000e+00 -1.000000e+00 0.000000e+00
    outer loop
      vertex   -6.959766e+01 1.446324e+02 2.000000e+00
      vertex   -6.959766e+01 1.446324e+02 3.700000e+01
      vertex   -7.859766e+01 1.446324e+02 2.000000e+00
    endloop
  endfacet
  facet normal 0.000000e+00 -1.000000e+00 0.000000e+00
    outer loop
      vertex   -7.859766e+01 1.446324e+02 2.000000e+00
      vertex   -6.959766e+01 1.446324e+02 3.700000e+01
      vertex   -7.859766e+01 1.446324e+02 3.700000e+01
    endloop
  endfacet
  facet normal 1.000000e+00 0.000000e+00 0.000000e+00
    outer loop
      vertex   -7.859766e+01 1.446324e+02 3.700000e+01
      vertex   -7.859766e+01 1.176098e+02 3.700000e+01
      vertex   -7.859766e+01 1.446324e+02 2.000000e+00
    endloop
  endfacet
  facet normal 1.000000e+00 0.000000e+00 0.000000e+00
    outer loop
      vertex   -7.859766e+01 1.446324e+02 2.000000e+00
      vertex   -7.859766e+01 1.176098e+02 3.700000e+01
      vertex   -7.859766e+01 1.176098e+02 2.000000e+00
    endloop
  endfacet
  facet normal -7.071057e-01 7.071079e-01 0.000000e+00
    outer loop
      vertex   -7.167358e+01 1.163598e+02 1.999998e+00
      vertex   -7.167358e+01 1.163598e+02 3.500000e+01
      vertex   -7.042358e+01 1.176098e+02 2.000000e+00
    endloop
  endfacet
  facet normal -7.071068e-01 7.071068e-01 -8.173934e-08
    outer loop
      vertex   -7.042358e+01 1.176098e+02 2.000000e+00
      vertex   -7.167358e+01 1.163598e+02 3.500000e+01
      vertex   -7.042358e+01 1.176098e+02 3.500000e+01
    endloop
  endfacet
  facet normal -1.000000e+00 0.000000e+00 0.000000e+00
    outer loop
      vertex   -6.689934e+01 1.158598e+02 1.999998e+00
      vertex   -6.689934e+01 1.158598e+02 3.700000e+01
      vertex   -6.689934e+01 1.163598e+02 1.999998e+00
    endloop
  endfacet
  facet normal -1.000000e+00 0.000000e+00 0.000000e+00
    outer loop
      vertex   -6.689934e+01 1.163598e+02 1.999998e+00
      vertex   -6.689934e+01 1.158598e+02 3.700000e+01
      vertex   -6.689934e+01 1.163598e+02 3.700000e+01
    endloop
  endfacet
  facet normal 0.000000e+00 -1.000000e+00 0.000000e+00
    outer loop
      vertex   -7.167358e+01 1.163598e+02 1.999998e+00
      vertex   -6.689934e+01 1.163598e+02 1.999998e+00
      vertex   -7.167358e+01 1.163598e+02 3.500000e+01
    endloop
  endfacet
  facet normal 0.000000e+00 -1.000000e+00 0.000000e+00
    outer loop
      vertex   -7.167358e+01 1.163598e+02 3.500000e+01
      vertex   -6.689934e+01 1.163598e+02 1.999998e+00
      vertex   -6.689934e+01 1.163598e+02 3.700000e+01
    endloop
  endfacet
  facet normal 0.000000e+00 -1.000000e+00 0.000000e+00
    outer loop
      vertex   -7.689934e+01 1.163598e+02 3.700000e+01
      vertex   -7.167358e+01 1.163598e+02 3.500000e+01
      vertex   -6.689934e+01 1.163598e+02 3.700000e+01
    endloop
  endfacet
  facet normal 0.000000e+00 -1.000000e+00 0.000000e+00
    outer loop
      vertex   -7.689934e+01 1.163598e+02 3.700000e+01
      vertex   -7.267358e+01 1.163598e+02 3.500000e+01
      vertex   -7.167358e+01 1.163598e+02 3.500000e+01
    endloop
  endfacet
  facet normal 0.000000e+00 -1.000000e+00 0.000000e+00
    outer loop
      vertex   -7.689934e+01 1.163598e+02 3.700000e+01
      vertex   -7.689934e+01 1.163598e+02 1.999998e+00
      vertex   -7.267358e+01 1.163598e+02 3.500000e+01
    endloop
  endfacet
  facet normal 0.000000e+00 -1.000000e+00 -0.000000e+00
    outer loop
      vertex   -7.267358e+01 1.163598e+02 3.500000e+01
      vertex   -7.689934e+01 1.163598e+02 1.999998e+00
      vertex   -7.267358e+01 1.163598e+02 1.999998e+00
    endloop
  endfacet
  facet normal -1.000000e+00 0.000000e+00 -0.000000e+00
    outer loop
      vertex   -7.192358e+01 1.146098e+02 3.500000e+01
      vertex   -7.192358e+01 1.158598e+02 3.500000e+01
      vertex   -7.192358e+01 1.146098e+02 2.000000e+00
    endloop
  endfacet
  facet normal -1.000000e+00 0.000000e+00 0.000000e+00
    outer loop
      vertex   -7.192358e+01 1.146098e+02 2.000000e+00
      vertex   -7.192358e+01 1.158598e+02 3.500000e+01
      vertex   -7.192358e+01 1.158598e+02 1.999998e+00
    endloop
  endfacet
  facet normal -0.000000e+00 1.000000e+00 0.000000e+00
    outer loop
      vertex   -7.192358e+01 1.158598e+02 1.999998e+00
      vertex   -7.192358e+01 1.158598e+02 3.500000e+01
      vertex   -6.689934e+01 1.158598e+02 1.999998e+00
    endloop
  endfacet
  facet normal 0.000000e+00 1.000000e+00 -0.000000e+00
    outer loop
      vertex   -6.689934e+01 1.158598e+02 1.999998e+00
      vertex   -7.192358e+01 1.158598e+02 3.500000e+01
      vertex   -6.689934e+01 1.158598e+02 3.700000e+01
    endloop
  endfacet
  facet normal 0.000000e+00 1.000000e+00 0.000000e+00
    outer loop
      vertex   -6.689934e+01 1.158598e+02 3.700000e+01
      vertex   -7.192358e+01 1.158598e+02 3.500000e+01
      vertex   -7.689934e+01 1.158598e+02 3.700000e+01
    endloop
  endfacet
  facet normal 0.000000e+00 1.000000e+00 0.000000e+00
    outer loop
      vertex   -7.689934e+01 1.158598e+02 3.700000e+01
      vertex   -7.192358e+01 1.158598e+02 3.500000e+01
      vertex   -7.242358e+01 1.158598e+02 3.500000e+01
    endloop
  endfacet
  facet normal -0.000000e+00 1.000000e+00 0.000000e+00
    outer loop
      vertex   -7.689934e+01 1.158598e+02 1.999998e+00
      vertex   -7.242358e+01 1.158598e+02 3.500000e+01
      vertex   -7.242358e+01 1.158598e+02 1.999998e+00
    endloop
  endfacet
  facet normal -0.000000e+00 1.000000e+00 0.000000e+00
    outer loop
      vertex   -7.689934e+01 1.158598e+02 1.999998e+00
      vertex   -7.689934e+01 1.158598e+02 3.700000e+01
      vertex   -7.242358e+01 1.158598e+02 3.500000e+01
    endloop
  endfacet
  facet normal -1.000000e+00 0.000000e+00 0.000000e+00
    outer loop
      vertex   -6.559767e+01 1.046098e+02 2.000000e+00
      vertex   -6.559767e+01 1.046098e+02 3.700000e+01
      vertex   -6.559767e+01 1.146098e+02 2.000000e+00
    endloop
  endfacet
  facet normal -1.000000e+00 0.000000e+00 0.000000e+00
    outer loop
      vertex   -6.559767e+01 1.146098e+02 2.000000e+00
      vertex   -6.559767e+01 1.046098e+02 3.700000e+01
      vertex   -6.559767e+01 1.146098e+02 3.700000e+01
    endloop
  endfacet
  facet normal 0.000000e+00 -1.000000e+00 0.000000e+00
    outer loop
      vertex   -7.192358e+01 1.146098e+02 2.000000e+00
      vertex   -6.559767e+01 1.146098e+02 2.000000e+00
      vertex   -7.192358e+01 1.146098e+02 3.500000e+01
    endloop
  endfacet
  facet normal 0.000000e+00 -1.000000e+00 0.000000e+00
    outer loop
      vertex   -7.192358e+01 1.146098e+02 3.500000e+01
      vertex   -6.559767e+01 1.146098e+02 2.000000e+00
      vertex   -6.559767e+01 1.146098e+02 3.700000e+01
    endloop
  endfacet
  facet normal 0.000000e+00 -1.000000e+00 0.000000e+00
    outer loop
      vertex   -7.859766e+01 1.146098e+02 3.700000e+01
      vertex   -7.192358e+01 1.146098e+02 3.500000e+01
      vertex   -6.559767e+01 1.146098e+02 3.700000e+01
    endloop
  endfacet
  facet normal 0.000000e+00 -1.000000e+00 0.000000e+00
    outer loop
      vertex   -7.859766e+01 1.146098e+02 3.700000e+01
      vertex   -7.242358e+01 1.146098e+02 3.500000e+01
      vertex   -7.192358e+01 1.146098e+02 3.500000e+01
    endloop
  endfacet
  facet normal 0.000000e+00 -1.000000e+00 0.000000e+00
    outer loop
      vertex   -7.859766e+01 1.146098e+02 3.700000e+01
      vertex   -7.859766e+01 1.146098e+02 2.000000e+00
      vertex   -7.242358e+01 1.146098e+02 3.500000e+01
    endloop
  endfacet
  facet normal 0.000000e+00 -1.000000e+00 -0.000000e+00
    outer loop
      vertex   -7.242358e+01 1.146098e+02 3.500000e+01
      vertex   -7.859766e+01 1.146098e+02 2.000000e+00
      vertex   -7.242358e+01 1.146098e+02 2.000000e+00
    endloop
  endfacet
  facet normal -1.000000e+00 0.000000e+00 -0.000000e+00
    outer loop
      vertex   -7.192358e+01 1.026098e+02 3.500000e+01
      vertex   -7.192358e+01 1.046098e+02 3.500000e+01
      vertex   -7.192358e+01 1.026098e+02 2.000000e+00
    endloop
  endfacet
  facet normal -1.000000e+00 0.000000e+00 0.000000e+00
    outer loop
      vertex   -7.192358e+01 1.026098e+02 2.000000e+00
      vertex   -7.192358e+01 1.046098e+02 3.500000e+01
      vertex   -7.192358e+01 1.046098e+02 2.000000e+00
    endloop
  endfacet
  facet normal -0.000000e+00 1.000000e+00 0.000000e+00
    outer loop
      vertex   -7.192358e+01 1.046098e+02 2.000000e+00
      vertex   -7.192358e+01 1.046098e+02 3.500000e+01
      vertex   -6.559767e+01 1.046098e+02 2.000000e+00
    endloop
  endfacet
  facet normal 0.000000e+00 1.000000e+00 -0.000000e+00
    outer loop
      vertex   -6.559767e+01 1.046098e+02 2.000000e+00
      vertex   -7.192358e+01 1.046098e+02 3.500000e+01
      vertex   -6.559767e+01 1.046098e+02 3.700000e+01
    endloop
  endfacet
  facet normal 0.000000e+00 1.000000e+00 0.000000e+00
    outer loop
      vertex   -6.559767e+01 1.046098e+02 3.700000e+01
      vertex   -7.192358e+01 1.046098e+02 3.500000e+01
      vertex   -7.859766e+01 1.046098e+02 3.700000e+01
    endloop
  endfacet
  facet normal 0.000000e+00 1.000000e+00 0.000000e+00
    outer loop
      vertex   -7.859766e+01 1.046098e+02 3.700000e+01
      vertex   -7.192358e+01 1.046098e+02 3.500000e+01
      vertex   -7.242358e+01 1.046098e+02 3.500000e+01
    endloop
  endfacet
  facet normal -0.000000e+00 1.000000e+00 0.000000e+00
    outer loop
      vertex   -7.859766e+01 1.046098e+02 2.000000e+00
      vertex   -7.242358e+01 1.046098e+02 3.500000e+01
      vertex   -7.242358e+01 1.046098e+02 2.000000e+00
    endloop
  endfacet
  facet normal -0.000000e+00 1.000000e+00 0.000000e+00
    outer loop
      vertex   -7.859766e+01 1.046098e+02 2.000000e+00
      vertex   -7.859766e+01 1.046098e+02 3.700000e+01
      vertex   -7.242358e+01 1.046098e+02 3.500000e+01
    endloop
  endfacet
  facet normal -1.000000e+00 0.000000e+00 0.000000e+00
    outer loop
      vertex   -6.559766e+01 8.960976e+01 2.000000e+00
      vertex   -6.559766e+01 8.960976e+01 3.700000e+01
      vertex   -6.559766e+01 1.026098e+02 2.000000e+00
    endloop
  endfacet
  facet normal -1.000000e+00 0.000000e+00 0.000000e+00
    outer loop
      vertex   -6.559766e+01 1.026098e+02 2.000000e+00
      vertex   -6.559766e+01 8.960976e+01 3.700000e+01
      vertex   -6.559766e+01 1.026098e+02 3.700000e+01
    endloop
  endfacet
  facet normal -0.000000e+00 1.000000e+00 0.000000e+00
    outer loop
      vertex   -6.967358e+01 8.960976e+01 2.000000e+00
      vertex   -6.967358e+01 8.960976e+01 3.700000e+01
      vertex   -6.559766e+01 8.960976e+01 2.000000e+00
    endloop
  endfacet
  facet normal 0.000000e+00 1.000000e+00 -0.000000e+00
    outer loop
      vertex   -6.559766e+01 8.960976e+01 2.000000e+00
      vertex   -6.967358e+01 8.960976e+01 3.700000e+01
      vertex   -6.559766e+01 8.960976e+01 3.700000e+01
    endloop
  endfacet
  facet normal 0.000000e+00 -1.000000e+00 0.000000e+00
    outer loop
      vertex   -7.192358e+01 1.026098e+02 2.000000e+00
      vertex   -6.559766e+01 1.026098e+02 2.000000e+00
      vertex   -7.192358e+01 1.026098e+02 3.500000e+01
    endloop
  endfacet
  facet normal 0.000000e+00 -1.000000e+00 0.000000e+00
    outer loop
      vertex   -7.192358e+01 1.026098e+02 3.500000e+01
      vertex   -6.559766e+01 1.026098e+02 2.000000e+00
      vertex   -6.559766e+01 1.026098e+02 3.700000e+01
    endloop
  endfacet
  facet normal 0.000000e+00 -1.000000e+00 0.000000e+00
    outer loop
      vertex   -7.859766e+01 1.026098e+02 3.700000e+01
      vertex   -7.192358e+01 1.026098e+02 3.500000e+01
      vertex   -6.559766e+01 1.026098e+02 3.700000e+01
    endloop
  endfacet
  facet normal 0.000000e+00 -1.000000e+00 0.000000e+00
    outer loop
      vertex   -7.859766e+01 1.026098e+02 3.700000e+01
      vertex   -7.242358e+01 1.026098e+02 3.500000e+01
      vertex   -7.192358e+01 1.026098e+02 3.500000e+01
    endloop
  endfacet
  facet normal 0.000000e+00 -1.000000e+00 0.000000e+00
    outer loop
      vertex   -7.859766e+01 1.026098e+02 3.700000e+01
      vertex   -7.859766e+01 1.026098e+02 2.000000e+00
      vertex   -7.242358e+01 1.026098e+02 3.500000e+01
    endloop
  endfacet
  facet normal 0.000000e+00 -1.000000e+00 -0.000000e+00
    outer loop
      vertex   -7.242358e+01 1.026098e+02 3.500000e+01
      vertex   -7.859766e+01 1.026098e+02 2.000000e+00
      vertex   -7.242358e+01 1.026098e+02 2.000000e+00
    endloop
  endfacet
  facet normal 1.000000e+00 0.000000e+00 -0.000000e+00
    outer loop
      vertex   -6.309766e+01 8.560976e+01 2.000000e+00
      vertex   -6.309766e+01 1.156129e+02 2.000000e+00
      vertex   -6.309766e+01 8.560976e+01 3.700000e+01
    endloop
  endfacet
  facet normal 1.000000e+00 -0.000000e+00 0.000000e+00
    outer loop
      vertex   -6.309766e+01 8.560976e+01 3.700000e+01
      vertex   -6.309766e+01 1.156129e+02 2.000000e+00
      vertex   -6.309766e+01 1.156129e+02 3.700000e+01
    endloop
  endfacet
  facet normal -0.000000e+00 -0.000000e+00 -1.000000e+00
    outer loop
      vertex   -7.192358e+01 1.046098e+02 3.500000e+01
      vertex   -7.192358e+01 1.026098e+02 3.500000e+01
      vertex   -7.242358e+01 1.046098e+02 3.500000e+01
    endloop
  endfacet
  facet normal -0.000000e+00 -0.000000e+00 -1.000000e+00
    outer loop
      vertex   -7.242358e+01 1.046098e+02 3.500000e+01
      vertex   -7.192358e+01 1.026098e+02 3.500000e+01
      vertex   -7.242358e+01 1.026098e+02 3.500000e+01
    endloop
  endfacet
  facet normal -0.000000e+00 -0.000000e+00 -1.000000e+00
    outer loop
      vertex   -7.192358e+01 1.158598e+02 3.500000e+01
      vertex   -7.192358e+01 1.146098e+02 3.500000e+01
      vertex   -7.242358e+01 1.158598e+02 3.500000e+01
    endloop
  endfacet
  facet normal -0.000000e+00 -0.000000e+00 -1.000000e+00
    outer loop
      vertex   -7.242358e+01 1.158598e+02 3.500000e+01
      vertex   -7.192358e+01 1.146098e+02 3.500000e+01
      vertex   -7.242358e+01 1.146098e+02 3.500000e+01
    endloop
  endfacet
  facet normal 1.000000e+00 0.000000e+00 0.000000e+00
    outer loop
      vertex   -7.242358e+01 1.046098e+02 3.500000e+01
      vertex   -7.242358e+01 1.026098e+02 3.500000e+01
      vertex   -7.242358e+01 1.046098e+02 2.000000e+00
    endloop
  endfacet
  facet normal 1.000000e+00 0.000000e+00 0.000000e+00
    outer loop
      vertex   -7.242358e+01 1.046098e+02 2.000000e+00
      vertex   -7.242358e+01 1.026098e+02 3.500000e+01
      vertex   -7.242358e+01 1.026098e+02 2.000000e+00
    endloop
  endfacet
  facet normal 1.000000e+00 0.000000e+00 -0.000000e+00
    outer loop
      vertex   -7.242358e+01 1.158598e+02 1.999998e+00
      vertex   -7.242358e+01 1.158598e+02 3.500000e+01
      vertex   -7.242358e+01 1.146098e+02 2.000000e+00
    endloop
  endfacet
  facet normal 1.000000e+00 0.000000e+00 -0.000000e+00
    outer loop
      vertex   -7.242358e+01 1.146098e+02 2.000000e+00
      vertex   -7.242358e+01 1.158598e+02 3.500000e+01
      vertex   -7.242358e+01 1.146098e+02 3.500000e+01
    endloop
  endfacet
  facet normal -0.000000e+00 1.000000e+00 0.000000e+00
    outer loop
      vertex   -7.859766e+01 8.960976e+01 2.000000e+00
      vertex   -7.859766e+01 8.960976e+01 3.700000e+01
      vertex   -7.467358e+01 8.960976e+01 2.000000e+00
    endloop
  endfacet
  facet normal 0.000000e+00 1.000000e+00 -0.000000e+00
    outer loop
      vertex   -7.467358e+01 8.960976e+01 2.000000e+00
      vertex   -7.859766e+01 8.960976e+01 3.700000e+01
      vertex   -7.467358e+01 8.960976e+01 3.700000e+01
    endloop
  endfacet
  facet normal 7.071068e-01 7.071068e-01 0.000000e+00
    outer loop
      vertex   -7.392358e+01 1.176098e+02 3.500000e+01
      vertex   -7.267358e+01 1.163598e+02 3.500000e+01
      vertex   -7.392358e+01 1.176098e+02 2.000000e+00
    endloop
  endfacet
  facet normal 7.071068e-01 7.071068e-01 0.000000e+00
    outer loop
      vertex   -7.392358e+01 1.176098e+02 2.000000e+00
      vertex   -7.267358e+01 1.163598e+02 3.500000e+01
      vertex   -7.267358e+01 1.163598e+02 1.999998e+00
    endloop
  endfacet
  facet normal 1.000000e+00 0.000000e+00 -0.000000e+00
    outer loop
      vertex   -7.689934e+01 1.163598e+02 1.999998e+00
      vertex   -7.689934e+01 1.163598e+02 3.700000e+01
      vertex   -7.689934e+01 1.158598e+02 1.999998e+00
    endloop
  endfacet
  facet normal 1.000000e+00 0.000000e+00 -0.000000e+00
    outer loop
      vertex   -7.689934e+01 1.158598e+02 1.999998e+00
      vertex   -7.689934e+01 1.163598e+02 3.700000e+01
      vertex   -7.689934e+01 1.158598e+02 3.700000e+01
    endloop
  endfacet
  facet normal 0.000000e+00 0.000000e+00 -1.000000e+00
    outer loop
      vertex   -7.267358e+01 1.163598e+02 3.500000e+01
      vertex   -7.392358e+01 1.176098e+02 3.500000e+01
      vertex   -7.167358e+01 1.163598e+02 3.500000e+01
    endloop
  endfacet
  facet normal 0.000000e+00 0.000000e+00 -1.000000e+00
    outer loop
      vertex   -7.167358e+01 1.163598e+02 3.500000e+01
      vertex   -7.392358e+01 1.176098e+02 3.500000e+01
      vertex   -7.042358e+01 1.176098e+02 3.500000e+01
    endloop
  endfacet
  facet normal 1.000000e+00 0.000000e+00 -0.000000e+00
    outer loop
      vertex   -7.859766e+01 1.026098e+02 2.000000e+00
      vertex   -7.859766e+01 1.026098e+02 3.700000e+01
      vertex   -7.859766e+01 8.960976e+01 2.000000e+00
    endloop
  endfacet
  facet normal 1.000000e+00 0.000000e+00 -0.000000e+00
    outer loop
      vertex   -7.859766e+01 8.960976e+01 2.000000e+00
      vertex   -7.859766e+01 1.026098e+02 3.700000e+01
      vertex   -7.859766e+01 8.960976e+01 3.700000e+01
    endloop
  endfacet
  facet normal 1.000000e+00 0.000000e+00 -0.000000e+00
    outer loop
      vertex   -7.859766e+01 1.146098e+02 2.000000e+00
      vertex   -7.859766e+01 1.146098e+02 3.700000e+01
      vertex   -7.859766e+01 1.046098e+02 2.000000e+00
    endloop
  endfacet
  facet normal 1.000000e+00 0.000000e+00 -0.000000e+00
    outer loop
      vertex   -7.859766e+01 1.046098e+02 2.000000e+00
      vertex   -7.859766e+01 1.146098e+02 3.700000e+01
      vertex   -7.859766e+01 1.046098e+02 3.700000e+01
    endloop
  endfacet
  facet normal -0.000000e+00 1.000000e+00 0.000000e+00
    outer loop
      vertex   -8.159766e+01 1.566129e+02 3.700000e+01
      vertex   -3.359766e+01 1.566129e+02 3.700000e+01
      vertex   -8.159766e+01 1.566129e+02 -2.000000e+00
    endloop
  endfacet
  facet normal -0.000000e+00 1.000000e+00 0.000000e+00
    outer loop
      vertex   -8.159766e+01 1.566129e+02 -2.000000e+00
      vertex   -3.359766e+01 1.566129e+02 3.700000e+01
      vertex   -3.359766e+01 1.566129e+02 -2.000000e+00
    endloop
  endfacet
endsolid
