solid ascii
  facet normal -0.000000e+00 -1.000000e+00 0.000000e+00
    outer loop
      vertex   -1.881249e+02 1.726762e+02 2.775558e-16
      vertex   -1.881249e+02 1.726762e+02 2.000000e+00
      vertex   -2.021249e+02 1.726762e+02 2.775558e-16
    endloop
  endfacet
  facet normal 0.000000e+00 -1.000000e+00 0.000000e+00
    outer loop
      vertex   -2.021249e+02 1.726762e+02 2.775558e-16
      vertex   -1.881249e+02 1.726762e+02 2.000000e+00
      vertex   -2.021249e+02 1.726762e+02 2.000000e+00
    endloop
  endfacet
  facet normal 1.000000e+00 0.000000e+00 -0.000000e+00
    outer loop
      vertex   -2.021249e+02 1.726762e+02 2.775558e-16
      vertex   -2.021249e+02 1.726762e+02 2.000000e+00
      vertex   -2.021249e+02 1.586762e+02 2.775558e-16
    endloop
  endfacet
  facet normal 1.000000e+00 0.000000e+00 -0.000000e+00
    outer loop
      vertex   -2.021249e+02 1.586762e+02 2.775558e-16
      vertex   -2.021249e+02 1.726762e+02 2.000000e+00
      vertex   -2.021249e+02 1.586762e+02 2.000000e+00
    endloop
  endfacet
  facet normal 2.030122e-15 1.000000e+00 0.000000e+00
    outer loop
      vertex   -1.881249e+02 1.586762e+02 2.000000e+00
      vertex   -1.881249e+02 1.586762e+02 2.775558e-16
      vertex   -2.021249e+02 1.586762e+02 2.000000e+00
    endloop
  endfacet
  facet normal 2.030122e-15 1.000000e+00 0.000000e+00
    outer loop
      vertex   -2.021249e+02 1.586762e+02 2.000000e+00
      vertex   -1.881249e+02 1.586762e+02 2.775558e-16
      vertex   -2.021249e+02 1.586762e+02 2.775558e-16
    endloop
  endfacet
  facet normal -5.551115e-17 0.000000e+00 1.000000e+00
    outer loop
      vertex   -2.341249e+02 1.851778e+02 2.000000e+00
      vertex   -2.341249e+02 1.431762e+02 2.000000e+00
      vertex   -2.021249e+02 1.586762e+02 2.000000e+00
    endloop
  endfacet
  facet normal -5.551115e-17 0.000000e+00 1.000000e+00
    outer loop
      vertex   -2.021249e+02 1.726762e+02 2.000000e+00
      vertex   -2.341249e+02 1.851778e+02 2.000000e+00
      vertex   -2.021249e+02 1.586762e+02 2.000000e+00
    endloop
  endfacet
  facet normal 9.063046e-18 1.652894e-16 1.000000e+00
    outer loop
      vertex   -2.021249e+02 1.726762e+02 2.000000e+00
      vertex   -1.851249e+02 1.851778e+02 2.000000e+00
      vertex   -2.341249e+02 1.851778e+02 2.000000e+00
    endloop
  endfacet
  facet normal -0.000000e+00 1.776136e-16 1.000000e+00
    outer loop
      vertex   -2.021249e+02 1.726762e+02 2.000000e+00
      vertex   -1.881249e+02 1.726762e+02 2.000000e+00
      vertex   -1.851249e+02 1.851778e+02 2.000000e+00
    endloop
  endfacet
  facet normal 7.401491e-16 0.000000e+00 1.000000e+00
    outer loop
      vertex   -1.851249e+02 1.851778e+02 2.000000e+00
      vertex   -1.881249e+02 1.726762e+02 2.000000e+00
      vertex   -1.881249e+02 1.586762e+02 2.000000e+00
    endloop
  endfacet
  facet normal -1.163297e-31 -5.730184e-17 1.000000e+00
    outer loop
      vertex   -1.851249e+02 1.431762e+02 2.000000e+00
      vertex   -1.881249e+02 1.586762e+02 2.000000e+00
      vertex   -2.021249e+02 1.586762e+02 2.000000e+00
    endloop
  endfacet
  facet normal -1.812609e-17 -7.718206e-17 1.000000e+00
    outer loop
      vertex   -2.341249e+02 1.431762e+02 2.000000e+00
      vertex   -1.851249e+02 1.431762e+02 2.000000e+00
      vertex   -2.021249e+02 1.586762e+02 2.000000e+00
    endloop
  endfacet
  facet normal 4.599438e-16 3.171949e-17 1.000000e+00
    outer loop
      vertex   -1.851249e+02 1.431762e+02 2.000000e+00
      vertex   -1.851249e+02 1.851778e+02 2.000000e+00
      vertex   -1.881249e+02 1.586762e+02 2.000000e+00
    endloop
  endfacet
  facet normal -9.063046e-18 -1.057316e-17 1.000000e+00
    outer loop
      vertex   -1.851249e+02 2.271793e+02 2.000000e+00
      vertex   -2.341249e+02 2.271793e+02 2.000000e+00
      vertex   -1.851249e+02 1.851778e+02 2.000000e+00
    endloop
  endfacet
  facet normal 9.063046e-18 1.057316e-17 1.000000e+00
    outer loop
      vertex   -1.851249e+02 1.851778e+02 2.000000e+00
      vertex   -2.341249e+02 2.271793e+02 2.000000e+00
      vertex   -2.341249e+02 1.851778e+02 2.000000e+00
    endloop
  endfacet
  facet normal 0.000000e+00 -1.000000e+00 1.076432e-07
    outer loop
      vertex   -1.831249e+02 1.411762e+02 7.077672e-14
      vertex   -1.831249e+02 1.411762e+02 7.000000e+00
      vertex   -2.361249e+02 1.411762e+02 7.077672e-14
    endloop
  endfacet
  facet normal 1.421703e-08 -1.000000e+00 0.000000e+00
    outer loop
      vertex   -2.361249e+02 1.411762e+02 7.077672e-14
      vertex   -1.831249e+02 1.411762e+02 7.000000e+00
      vertex   -2.361249e+02 1.411762e+02 7.000000e+00
    endloop
  endfacet
  facet normal -2.073505e-15 0.000000e+00 -1.000000e+00
    outer loop
      vertex   -2.021249e+02 1.586762e+02 2.775558e-16
      vertex   -2.361249e+02 1.851778e+02 7.077672e-14
      vertex   -2.021249e+02 1.726762e+02 2.775558e-16
    endloop
  endfacet
  facet normal -2.073505e-15 0.000000e+00 -1.000000e+00
    outer loop
      vertex   -2.021249e+02 1.586762e+02 2.775558e-16
      vertex   -2.361249e+02 1.411762e+02 7.077672e-14
      vertex   -2.361249e+02 1.851778e+02 7.077672e-14
    endloop
  endfacet
  facet normal -0.000000e+00 -4.028524e-15 -1.000000e+00
    outer loop
      vertex   -2.021249e+02 1.586762e+02 2.775558e-16
      vertex   -1.831249e+02 1.411762e+02 7.077672e-14
      vertex   -2.361249e+02 1.411762e+02 7.077672e-14
    endloop
  endfacet
  facet normal -8.178395e-30 -4.028524e-15 -1.000000e+00
    outer loop
      vertex   -2.021249e+02 1.586762e+02 2.775558e-16
      vertex   -1.881249e+02 1.586762e+02 2.775558e-16
      vertex   -1.831249e+02 1.411762e+02 7.077672e-14
    endloop
  endfacet
  facet normal 1.409982e-14 0.000000e+00 -1.000000e+00
    outer loop
      vertex   -1.831249e+02 1.411762e+02 7.077672e-14
      vertex   -1.881249e+02 1.586762e+02 2.775558e-16
      vertex   -1.831249e+02 1.851778e+02 7.077672e-14
    endloop
  endfacet
  facet normal 1.409982e-14 0.000000e+00 -1.000000e+00
    outer loop
      vertex   -1.831249e+02 1.851778e+02 7.077672e-14
      vertex   -1.881249e+02 1.586762e+02 2.775558e-16
      vertex   -1.881249e+02 1.726762e+02 2.775558e-16
    endloop
  endfacet
  facet normal 0.000000e+00 5.639233e-15 -1.000000e+00
    outer loop
      vertex   -2.021249e+02 1.726762e+02 2.775558e-16
      vertex   -1.831249e+02 1.851778e+02 7.077672e-14
      vertex   -1.881249e+02 1.726762e+02 2.775558e-16
    endloop
  endfacet
  facet normal 0.000000e+00 5.639233e-15 -1.000000e+00
    outer loop
      vertex   -2.021249e+02 1.726762e+02 2.775558e-16
      vertex   -2.361249e+02 1.851778e+02 7.077672e-14
      vertex   -1.831249e+02 1.851778e+02 7.077672e-14
    endloop
  endfacet
  facet normal 0.000000e+00 0.000000e+00 -1.000000e+00
    outer loop
      vertex   -1.831249e+02 1.851778e+02 7.077672e-14
      vertex   -2.361249e+02 1.851778e+02 7.077672e-14
      vertex   -1.831249e+02 2.291793e+02 7.077672e-14
    endloop
  endfacet
  facet normal -0.000000e+00 0.000000e+00 -1.000000e+00
    outer loop
      vertex   -1.831249e+02 2.291793e+02 7.077672e-14
      vertex   -2.361249e+02 1.851778e+02 7.077672e-14
      vertex   -2.361249e+02 2.291793e+02 7.077672e-14
    endloop
  endfacet
  facet normal -1.000000e+00 0.000000e+00 0.000000e+00
    outer loop
      vertex   -2.361249e+02 1.411762e+02 7.077672e-14
      vertex   -2.361249e+02 1.411762e+02 7.000000e+00
      vertex   -2.361249e+02 1.851778e+02 7.077672e-14
    endloop
  endfacet
  facet normal -1.000000e+00 0.000000e+00 0.000000e+00
    outer loop
      vertex   -2.361249e+02 1.851778e+02 7.077672e-14
      vertex   -2.361249e+02 1.411762e+02 7.000000e+00
      vertex   -2.361249e+02 1.851778e+02 7.000000e+00
    endloop
  endfacet
  facet normal -1.000000e+00 0.000000e+00 0.000000e+00
    outer loop
      vertex   -2.361249e+02 2.291793e+02 7.077672e-14
      vertex   -2.361249e+02 1.851778e+02 7.000000e+00
      vertex   -2.361249e+02 2.291793e+02 7.000000e+00
    endloop
  endfacet
  facet normal -1.000000e+00 0.000000e+00 0.000000e+00
    outer loop
      vertex   -2.361249e+02 2.291793e+02 7.077672e-14
      vertex   -2.361249e+02 1.851778e+02 7.077672e-14
      vertex   -2.361249e+02 1.851778e+02 7.000000e+00
    endloop
  endfacet
  facet normal 0.000000e+00 1.000000e+00 0.000000e+00
    outer loop
      vertex   -1.851249e+02 1.431762e+02 7.000000e+00
      vertex   -1.851249e+02 1.431762e+02 2.000000e+00
      vertex   -2.341249e+02 1.431762e+02 7.000000e+00
    endloop
  endfacet
  facet normal 0.000000e+00 1.000000e+00 0.000000e+00
    outer loop
      vertex   -2.341249e+02 1.431762e+02 7.000000e+00
      vertex   -1.851249e+02 1.431762e+02 2.000000e+00
      vertex   -2.341249e+02 1.431762e+02 2.000000e+00
    endloop
  endfacet
  facet normal -1.000000e+00 0.000000e+00 0.000000e+00
    outer loop
      vertex   -1.851249e+02 1.431762e+02 2.000000e+00
      vertex   -1.851249e+02 1.431762e+02 7.000000e+00
      vertex   -1.851249e+02 1.851778e+02 2.000000e+00
    endloop
  endfacet
  facet normal -1.000000e+00 0.000000e+00 0.000000e+00
    outer loop
      vertex   -1.851249e+02 1.851778e+02 2.000000e+00
      vertex   -1.851249e+02 1.431762e+02 7.000000e+00
      vertex   -1.851249e+02 1.851778e+02 7.000000e+00
    endloop
  endfacet
  facet normal -1.000000e+00 0.000000e+00 0.000000e+00
    outer loop
      vertex   -1.851249e+02 2.271793e+02 2.000000e+00
      vertex   -1.851249e+02 1.851778e+02 7.000000e+00
      vertex   -1.851249e+02 2.271793e+02 7.000000e+00
    endloop
  endfacet
  facet normal -1.000000e+00 -0.000000e+00 0.000000e+00
    outer loop
      vertex   -1.851249e+02 2.271793e+02 2.000000e+00
      vertex   -1.851249e+02 1.851778e+02 2.000000e+00
      vertex   -1.851249e+02 1.851778e+02 7.000000e+00
    endloop
  endfacet
  facet normal -1.262725e-23 8.881784e-16 1.000000e+00
    outer loop
      vertex   -1.831249e+02 1.411762e+02 7.000000e+00
      vertex   -1.851249e+02 1.431762e+02 7.000000e+00
      vertex   -2.361249e+02 1.411762e+02 7.000000e+00
    endloop
  endfacet
  facet normal -8.881776e-16 0.000000e+00 1.000000e+00
    outer loop
      vertex   -1.831249e+02 1.411762e+02 7.000000e+00
      vertex   -1.831249e+02 1.851778e+02 7.000000e+00
      vertex   -1.851249e+02 1.431762e+02 7.000000e+00
    endloop
  endfacet
  facet normal 0.000000e+00 -4.229265e-17 1.000000e+00
    outer loop
      vertex   -1.851249e+02 1.431762e+02 7.000000e+00
      vertex   -1.831249e+02 1.851778e+02 7.000000e+00
      vertex   -1.851249e+02 1.851778e+02 7.000000e+00
    endloop
  endfacet
  facet normal -0.000000e+00 4.229265e-17 1.000000e+00
    outer loop
      vertex   -1.851249e+02 1.851778e+02 7.000000e+00
      vertex   -1.831249e+02 1.851778e+02 7.000000e+00
      vertex   -1.851249e+02 2.271793e+02 7.000000e+00
    endloop
  endfacet
  facet normal -8.881776e-16 0.000000e+00 1.000000e+00
    outer loop
      vertex   -1.851249e+02 2.271793e+02 7.000000e+00
      vertex   -1.831249e+02 1.851778e+02 7.000000e+00
      vertex   -1.831249e+02 2.291793e+02 7.000000e+00
    endloop
  endfacet
  facet normal 0.000000e+00 -8.881784e-16 1.000000e+00
    outer loop
      vertex   -2.361249e+02 2.291793e+02 7.000000e+00
      vertex   -1.851249e+02 2.271793e+02 7.000000e+00
      vertex   -1.831249e+02 2.291793e+02 7.000000e+00
    endloop
  endfacet
  facet normal 0.000000e+00 -8.881784e-16 1.000000e+00
    outer loop
      vertex   -2.361249e+02 2.291793e+02 7.000000e+00
      vertex   -2.341249e+02 2.271793e+02 7.000000e+00
      vertex   -1.851249e+02 2.271793e+02 7.000000e+00
    endloop
  endfacet
  facet normal 8.881784e-16 0.000000e+00 1.000000e+00
    outer loop
      vertex   -2.361249e+02 2.291793e+02 7.000000e+00
      vertex   -2.361249e+02 1.851778e+02 7.000000e+00
      vertex   -2.341249e+02 2.271793e+02 7.000000e+00
    endloop
  endfacet
  facet normal -7.966903e-24 4.229265e-17 1.000000e+00
    outer loop
      vertex   -2.341249e+02 2.271793e+02 7.000000e+00
      vertex   -2.361249e+02 1.851778e+02 7.000000e+00
      vertex   -2.341249e+02 1.851778e+02 7.000000e+00
    endloop
  endfacet
  facet normal 7.966903e-24 -4.229265e-17 1.000000e+00
    outer loop
      vertex   -2.341249e+02 1.851778e+02 7.000000e+00
      vertex   -2.361249e+02 1.851778e+02 7.000000e+00
      vertex   -2.341249e+02 1.431762e+02 7.000000e+00
    endloop
  endfacet
  facet normal 8.881784e-16 0.000000e+00 1.000000e+00
    outer loop
      vertex   -2.341249e+02 1.431762e+02 7.000000e+00
      vertex   -2.361249e+02 1.851778e+02 7.000000e+00
      vertex   -2.361249e+02 1.411762e+02 7.000000e+00
    endloop
  endfacet
  facet normal 0.000000e+00 8.881781e-16 1.000000e+00
    outer loop
      vertex   -1.851249e+02 1.431762e+02 7.000000e+00
      vertex   -2.341249e+02 1.431762e+02 7.000000e+00
      vertex   -2.361249e+02 1.411762e+02 7.000000e+00
    endloop
  endfacet
  facet normal -0.000000e+00 1.000000e+00 0.000000e+00
    outer loop
      vertex   -2.361249e+02 2.291793e+02 7.000000e+00
      vertex   -1.831249e+02 2.291793e+02 7.000000e+00
      vertex   -2.361249e+02 2.291793e+02 7.077672e-14
    endloop
  endfacet
  facet normal -0.000000e+00 1.000000e+00 0.000000e+00
    outer loop
      vertex   -2.361249e+02 2.291793e+02 7.077672e-14
      vertex   -1.831249e+02 2.291793e+02 7.000000e+00
      vertex   -1.831249e+02 2.291793e+02 7.077672e-14
    endloop
  endfacet
  facet normal 0.000000e+00 -1.000000e+00 0.000000e+00
    outer loop
      vertex   -2.341249e+02 2.271793e+02 7.000000e+00
      vertex   -2.341249e+02 2.271793e+02 2.000000e+00
      vertex   -1.851249e+02 2.271793e+02 7.000000e+00
    endloop
  endfacet
  facet normal 0.000000e+00 -1.000000e+00 -0.000000e+00
    outer loop
      vertex   -1.851249e+02 2.271793e+02 7.000000e+00
      vertex   -2.341249e+02 2.271793e+02 2.000000e+00
      vertex   -1.851249e+02 2.271793e+02 2.000000e+00
    endloop
  endfacet
  facet normal 1.000000e+00 -0.000000e+00 4.769547e-07
    outer loop
      vertex   -1.831249e+02 1.411762e+02 7.077672e-14
      vertex   -1.831249e+02 1.851778e+02 7.077672e-14
      vertex   -1.831249e+02 1.411762e+02 7.000000e+00
    endloop
  endfacet
  facet normal 1.000000e+00 0.000000e+00 4.769547e-07
    outer loop
      vertex   -1.831249e+02 1.411762e+02 7.000000e+00
      vertex   -1.831249e+02 1.851778e+02 7.077672e-14
      vertex   -1.831249e+02 1.851778e+02 7.000000e+00
    endloop
  endfacet
  facet normal 1.000000e+00 5.418413e-08 4.769547e-07
    outer loop
      vertex   -1.831249e+02 1.851778e+02 7.000000e+00
      vertex   -1.831249e+02 1.851778e+02 7.077672e-14
      vertex   -1.831249e+02 2.291793e+02 7.077672e-14
    endloop
  endfacet
  facet normal 1.000000e+00 0.000000e+00 1.363567e-07
    outer loop
      vertex   -1.831249e+02 2.291793e+02 7.000000e+00
      vertex   -1.831249e+02 1.851778e+02 7.000000e+00
      vertex   -1.831249e+02 2.291793e+02 7.077672e-14
    endloop
  endfacet
  facet normal -1.000000e+00 -0.000000e+00 -0.000000e+00
    outer loop
      vertex   -1.881249e+02 1.726762e+02 2.000000e+00
      vertex   -1.881249e+02 1.726762e+02 2.775558e-16
      vertex   -1.881249e+02 1.586762e+02 2.000000e+00
    endloop
  endfacet
  facet normal -1.000000e+00 -0.000000e+00 -0.000000e+00
    outer loop
      vertex   -1.881249e+02 1.586762e+02 2.000000e+00
      vertex   -1.881249e+02 1.726762e+02 2.775558e-16
      vertex   -1.881249e+02 1.586762e+02 2.775558e-16
    endloop
  endfacet
  facet normal 1.000000e+00 -1.353365e-15 0.000000e+00
    outer loop
      vertex   -2.341249e+02 1.431762e+02 7.000000e+00
      vertex   -2.341249e+02 1.431762e+02 2.000000e+00
      vertex   -2.341249e+02 1.851778e+02 7.000000e+00
    endloop
  endfacet
  facet normal 1.000000e+00 0.000000e+00 -1.136868e-14
    outer loop
      vertex   -2.341249e+02 1.851778e+02 7.000000e+00
      vertex   -2.341249e+02 1.431762e+02 2.000000e+00
      vertex   -2.341249e+02 1.851778e+02 2.000000e+00
    endloop
  endfacet
  facet normal 1.000000e+00 0.000000e+00 0.000000e+00
    outer loop
      vertex   -2.341249e+02 2.271793e+02 7.000000e+00
      vertex   -2.341249e+02 1.851778e+02 2.000000e+00
      vertex   -2.341249e+02 2.271793e+02 2.000000e+00
    endloop
  endfacet
  facet normal 1.000000e+00 1.353365e-15 -1.136868e-14
    outer loop
      vertex   -2.341249e+02 2.271793e+02 7.000000e+00
      vertex   -2.341249e+02 1.851778e+02 7.000000e+00
      vertex   -2.341249e+02 1.851778e+02 2.000000e+00
    endloop
  endfacet
endsolid
